<svg xmlns="http://www.w3.org/2000/svg" xmlns:xlink="http://www.w3.org/1999/xlink" zoomAndPan="magnify" preserveAspectRatio="xMidYMid meet" version="1.0" viewBox="107.75 292.67 1176.28 214.66"><defs><g/></defs><g fill="#000000" fill-opacity="1"><g transform="translate(105.750001, 431.889723)"><g><path d="M 130.46875 -74.78125 L 130.46875 -45.8125 C 127.019531 -29.945312 119.46875 -17.941406 107.8125 -9.796875 C 96.15625 -1.648438 83.148438 2.421875 68.796875 2.421875 C 50.773438 2.421875 35.421875 -4.320312 22.734375 -17.8125 C 10.054688 -31.300781 3.71875 -47.59375 3.71875 -66.6875 C 3.71875 -86.113281 9.921875 -102.515625 22.328125 -115.890625 C 34.742188 -129.273438 50.234375 -135.96875 68.796875 -135.96875 C 90.484375 -135.96875 107.640625 -128.363281 120.265625 -113.15625 L 100.359375 -91.296875 C 93.234375 -102.734375 83.304688 -108.453125 70.578125 -108.453125 C 61.191406 -108.453125 53.175781 -104.378906 46.53125 -96.234375 C 39.894531 -88.085938 36.578125 -78.238281 36.578125 -66.6875 C 36.578125 -55.363281 39.894531 -45.679688 46.53125 -37.640625 C 53.175781 -29.597656 61.191406 -25.578125 70.578125 -25.578125 C 78.347656 -25.578125 85.117188 -27.921875 90.890625 -32.609375 C 96.660156 -37.304688 99.546875 -43.539062 99.546875 -51.3125 L 68.796875 -51.3125 L 68.796875 -74.78125 Z M 130.46875 -74.78125 "/></g></g></g><g fill="#000000" fill-opacity="1"><g transform="translate(231.849929, 431.889723)"><g><path d="M 9.71875 0 L 9.71875 -139.21875 L 38.359375 -139.21875 L 38.359375 0 Z M 9.71875 0 "/></g></g></g><g fill="#000000" fill-opacity="1"><g transform="translate(271.832837, 431.889723)"><g><path d="M 36.75 -83.046875 L 36.75 -43.546875 C 36.75 -35.335938 37.988281 -29.503906 40.46875 -26.046875 C 42.945312 -22.597656 47.15625 -20.875 53.09375 -20.875 C 59.03125 -20.875 63.238281 -22.597656 65.71875 -26.046875 C 68.195312 -29.503906 69.4375 -35.335938 69.4375 -43.546875 L 69.4375 -83.046875 L 98.09375 -83.046875 L 98.09375 -36.578125 C 98.09375 -22.765625 94.503906 -12.8125 87.328125 -6.71875 C 80.148438 -0.625 68.738281 2.421875 53.09375 2.421875 C 37.445312 2.421875 26.035156 -0.625 18.859375 -6.71875 C 11.679688 -12.8125 8.09375 -22.765625 8.09375 -36.578125 L 8.09375 -83.046875 Z M 36.75 -83.046875 "/></g></g></g><g fill="#000000" fill-opacity="1"><g transform="translate(369.928549, 431.889723)"><g><path d="M 53.90625 -62 C 48.507812 -62 43.867188 -60 39.984375 -56 C 36.097656 -52.007812 34.15625 -47.210938 34.15625 -41.609375 C 34.15625 -35.878906 36.097656 -31.019531 39.984375 -27.03125 C 43.867188 -23.039062 48.507812 -21.046875 53.90625 -21.046875 C 56.5 -21.046875 58.953125 -21.367188 61.265625 -22.015625 C 63.585938 -22.660156 65.289062 -23.304688 66.375 -23.953125 L 67.828125 -24.921875 L 77.53125 -5.015625 C 76.78125 -4.472656 75.726562 -3.796875 74.375 -2.984375 C 73.03125 -2.179688 69.957031 -1.082031 65.15625 0.3125 C 60.351562 1.71875 55.203125 2.421875 49.703125 2.421875 C 37.503906 2.421875 26.789062 -1.863281 17.5625 -10.4375 C 8.332031 -19.019531 3.71875 -29.300781 3.71875 -41.28125 C 3.71875 -53.363281 8.332031 -63.75 17.5625 -72.4375 C 26.789062 -81.125 37.503906 -85.46875 49.703125 -85.46875 C 55.203125 -85.46875 60.269531 -84.816406 64.90625 -83.515625 C 69.550781 -82.222656 72.84375 -80.929688 74.78125 -79.640625 L 77.53125 -77.703125 L 67.828125 -58.109375 C 64.265625 -60.703125 59.625 -62 53.90625 -62 Z M 53.90625 -62 "/></g></g></g><g fill="#000000" fill-opacity="1"><g transform="translate(441.315029, 431.889723)"><g><path d="M 17.5625 -9.875 C 8.332031 -18.070312 3.71875 -28.59375 3.71875 -41.4375 C 3.71875 -54.28125 8.519531 -64.828125 18.125 -73.078125 C 27.726562 -81.335938 39.601562 -85.46875 53.75 -85.46875 C 67.664062 -85.46875 79.398438 -81.3125 88.953125 -73 C 98.503906 -64.695312 103.28125 -54.175781 103.28125 -41.4375 C 103.28125 -28.707031 98.609375 -18.210938 89.265625 -9.953125 C 79.929688 -1.703125 68.09375 2.421875 53.75 2.421875 C 38.851562 2.421875 26.789062 -1.675781 17.5625 -9.875 Z M 39.734375 -55.515625 C 36.015625 -51.847656 34.15625 -47.15625 34.15625 -41.4375 C 34.15625 -35.71875 35.9375 -31.050781 39.5 -27.4375 C 43.0625 -23.820312 47.753906 -22.015625 53.578125 -22.015625 C 59.191406 -22.015625 63.804688 -23.847656 67.421875 -27.515625 C 71.035156 -31.179688 72.84375 -35.820312 72.84375 -41.4375 C 72.84375 -47.15625 70.976562 -51.847656 67.25 -55.515625 C 63.53125 -59.191406 58.972656 -61.03125 53.578125 -61.03125 C 48.078125 -61.03125 43.460938 -59.191406 39.734375 -55.515625 Z M 39.734375 -55.515625 "/></g></g></g><g fill="#000000" fill-opacity="1"><g transform="translate(540.220108, 431.889723)"><g><path d="M 130.46875 -74.78125 L 130.46875 -45.8125 C 127.019531 -29.945312 119.46875 -17.941406 107.8125 -9.796875 C 96.15625 -1.648438 83.148438 2.421875 68.796875 2.421875 C 50.773438 2.421875 35.421875 -4.320312 22.734375 -17.8125 C 10.054688 -31.300781 3.71875 -47.59375 3.71875 -66.6875 C 3.71875 -86.113281 9.921875 -102.515625 22.328125 -115.890625 C 34.742188 -129.273438 50.234375 -135.96875 68.796875 -135.96875 C 90.484375 -135.96875 107.640625 -128.363281 120.265625 -113.15625 L 100.359375 -91.296875 C 93.234375 -102.734375 83.304688 -108.453125 70.578125 -108.453125 C 61.191406 -108.453125 53.175781 -104.378906 46.53125 -96.234375 C 39.894531 -88.085938 36.578125 -78.238281 36.578125 -66.6875 C 36.578125 -55.363281 39.894531 -45.679688 46.53125 -37.640625 C 53.175781 -29.597656 61.191406 -25.578125 70.578125 -25.578125 C 78.347656 -25.578125 85.117188 -27.921875 90.890625 -32.609375 C 96.660156 -37.304688 99.546875 -43.539062 99.546875 -51.3125 L 68.796875 -51.3125 L 68.796875 -74.78125 Z M 130.46875 -74.78125 "/></g></g></g><g fill="#000000" fill-opacity="1"><g transform="translate(666.320035, 431.889723)"><g><path d="M 36.75 -83.046875 L 36.75 -43.546875 C 36.75 -35.335938 37.988281 -29.503906 40.46875 -26.046875 C 42.945312 -22.597656 47.15625 -20.875 53.09375 -20.875 C 59.03125 -20.875 63.238281 -22.597656 65.71875 -26.046875 C 68.195312 -29.503906 69.4375 -35.335938 69.4375 -43.546875 L 69.4375 -83.046875 L 98.09375 -83.046875 L 98.09375 -36.578125 C 98.09375 -22.765625 94.503906 -12.8125 87.328125 -6.71875 C 80.148438 -0.625 68.738281 2.421875 53.09375 2.421875 C 37.445312 2.421875 26.035156 -0.625 18.859375 -6.71875 C 11.679688 -12.8125 8.09375 -22.765625 8.09375 -36.578125 L 8.09375 -83.046875 Z M 36.75 -83.046875 "/></g></g></g><g fill="#000000" fill-opacity="1"><g transform="translate(764.415729, 431.889723)"><g><path d="M 15.375 -10.28125 C 7.601562 -18.75 3.71875 -29.132812 3.71875 -41.4375 C 3.71875 -53.738281 7.601562 -64.148438 15.375 -72.671875 C 23.144531 -81.203125 33.019531 -85.46875 45 -85.46875 C 56.007812 -85.46875 65.078125 -82.015625 72.203125 -75.109375 L 72.203125 -83.046875 L 100.84375 -83.046875 L 100.84375 0 L 72.515625 0 L 72.515625 -9.390625 L 72.203125 -9.390625 C 65.078125 -1.515625 56.007812 2.421875 45 2.421875 C 33.019531 2.421875 23.144531 -1.8125 15.375 -10.28125 Z M 39.734375 -55.515625 C 36.015625 -51.847656 34.15625 -47.15625 34.15625 -41.4375 C 34.15625 -35.71875 35.9375 -31.050781 39.5 -27.4375 C 43.0625 -23.820312 47.753906 -22.015625 53.578125 -22.015625 C 59.191406 -22.015625 63.804688 -23.847656 67.421875 -27.515625 C 71.035156 -31.179688 72.84375 -35.820312 72.84375 -41.4375 C 72.84375 -47.15625 70.976562 -51.847656 67.25 -55.515625 C 63.53125 -59.191406 58.972656 -61.03125 53.578125 -61.03125 C 48.078125 -61.03125 43.460938 -59.191406 39.734375 -55.515625 Z M 39.734375 -55.515625 "/></g></g></g><g fill="#000000" fill-opacity="1"><g transform="translate(866.882018, 431.889723)"><g><path d="M 9.71875 0 L 9.71875 -83.046875 L 38.359375 -83.046875 L 38.359375 -71.0625 L 38.6875 -71.0625 C 38.90625 -71.488281 39.253906 -72.023438 39.734375 -72.671875 C 40.222656 -73.328125 41.273438 -74.460938 42.890625 -76.078125 C 44.515625 -77.703125 46.242188 -79.160156 48.078125 -80.453125 C 49.910156 -81.742188 52.28125 -82.898438 55.1875 -83.921875 C 58.101562 -84.953125 61.078125 -85.46875 64.109375 -85.46875 C 67.234375 -85.46875 70.304688 -85.035156 73.328125 -84.171875 C 76.347656 -83.304688 78.5625 -82.441406 79.96875 -81.578125 L 82.234375 -80.296875 L 70.25 -56.015625 C 66.6875 -59.035156 61.722656 -60.546875 55.359375 -60.546875 C 51.910156 -60.546875 48.941406 -59.789062 46.453125 -58.28125 C 43.972656 -56.769531 42.21875 -54.929688 41.1875 -52.765625 C 40.164062 -50.609375 39.4375 -48.773438 39 -47.265625 C 38.570312 -45.753906 38.359375 -44.566406 38.359375 -43.703125 L 38.359375 0 Z M 9.71875 0 "/></g></g></g><g fill="#000000" fill-opacity="1"><g transform="translate(939.401595, 431.889723)"><g><path d="M 15.375 -10.28125 C 7.601562 -18.75 3.71875 -29.132812 3.71875 -41.4375 C 3.71875 -53.738281 7.601562 -64.148438 15.375 -72.671875 C 23.144531 -81.203125 33.019531 -85.46875 45 -85.46875 C 56.007812 -85.46875 65.078125 -82.015625 72.203125 -75.109375 L 72.203125 -139.21875 L 100.84375 -139.21875 L 100.84375 0 L 72.515625 0 L 72.515625 -9.390625 L 72.203125 -9.390625 C 65.078125 -1.515625 56.007812 2.421875 45 2.421875 C 33.019531 2.421875 23.144531 -1.8125 15.375 -10.28125 Z M 39.734375 -55.515625 C 36.015625 -51.847656 34.15625 -47.15625 34.15625 -41.4375 C 34.15625 -35.71875 35.9375 -31.050781 39.5 -27.4375 C 43.0625 -23.820312 47.753906 -22.015625 53.578125 -22.015625 C 59.191406 -22.015625 63.804688 -23.847656 67.421875 -27.515625 C 71.035156 -31.179688 72.84375 -35.820312 72.84375 -41.4375 C 72.84375 -47.15625 70.976562 -51.847656 67.25 -55.515625 C 63.53125 -59.191406 58.972656 -61.03125 53.578125 -61.03125 C 48.078125 -61.03125 43.460938 -59.191406 39.734375 -55.515625 Z M 39.734375 -55.515625 "/></g></g></g><g fill="#000000" fill-opacity="1"><g transform="translate(1041.867884, 431.889723)"><g><path d="M 12.46875 -129.328125 C 15.8125 -132.679688 19.800781 -134.359375 24.4375 -134.359375 C 29.082031 -134.359375 33.078125 -132.679688 36.421875 -129.328125 C 39.765625 -125.984375 41.4375 -121.992188 41.4375 -117.359375 C 41.4375 -112.722656 39.765625 -108.726562 36.421875 -105.375 C 33.078125 -102.03125 29.082031 -100.359375 24.4375 -100.359375 C 19.800781 -100.359375 15.8125 -102.03125 12.46875 -105.375 C 9.125 -108.726562 7.453125 -112.722656 7.453125 -117.359375 C 7.453125 -121.992188 9.125 -125.984375 12.46875 -129.328125 Z M 9.71875 -83.046875 L 9.71875 0 L 38.359375 0 L 38.359375 -83.046875 Z M 9.71875 -83.046875 "/></g></g></g><g fill="#000000" fill-opacity="1"><g transform="translate(1082.660159, 431.889723)"><g><path d="M 15.375 -10.28125 C 7.601562 -18.75 3.71875 -29.132812 3.71875 -41.4375 C 3.71875 -53.738281 7.601562 -64.148438 15.375 -72.671875 C 23.144531 -81.203125 33.019531 -85.46875 45 -85.46875 C 56.007812 -85.46875 65.078125 -82.015625 72.203125 -75.109375 L 72.203125 -83.046875 L 100.84375 -83.046875 L 100.84375 0 L 72.515625 0 L 72.515625 -9.390625 L 72.203125 -9.390625 C 65.078125 -1.515625 56.007812 2.421875 45 2.421875 C 33.019531 2.421875 23.144531 -1.8125 15.375 -10.28125 Z M 39.734375 -55.515625 C 36.015625 -51.847656 34.15625 -47.15625 34.15625 -41.4375 C 34.15625 -35.71875 35.9375 -31.050781 39.5 -27.4375 C 43.0625 -23.820312 47.753906 -22.015625 53.578125 -22.015625 C 59.191406 -22.015625 63.804688 -23.847656 67.421875 -27.515625 C 71.035156 -31.179688 72.84375 -35.820312 72.84375 -41.4375 C 72.84375 -47.15625 70.976562 -51.847656 67.25 -55.515625 C 63.53125 -59.191406 58.972656 -61.03125 53.578125 -61.03125 C 48.078125 -61.03125 43.460938 -59.191406 39.734375 -55.515625 Z M 39.734375 -55.515625 "/></g></g></g><g fill="#000000" fill-opacity="1"><g transform="translate(1185.126448, 431.889723)"><g><path d="M 9.71875 0 L 9.71875 -83.046875 L 38.359375 -83.046875 L 38.359375 -74.296875 L 38.6875 -74.296875 C 46.132812 -81.742188 54.066406 -85.46875 62.484375 -85.46875 C 66.585938 -85.46875 70.660156 -84.925781 74.703125 -83.84375 C 78.753906 -82.769531 82.640625 -81.097656 86.359375 -78.828125 C 90.078125 -76.566406 93.097656 -73.359375 95.421875 -69.203125 C 97.742188 -65.046875 98.90625 -60.21875 98.90625 -54.71875 L 98.90625 0 L 70.25 0 L 70.25 -46.9375 C 70.25 -51.257812 68.875 -55.035156 66.125 -58.265625 C 63.375 -61.503906 59.785156 -63.125 55.359375 -63.125 C 51.046875 -63.125 47.132812 -61.453125 43.625 -58.109375 C 40.113281 -54.765625 38.359375 -51.039062 38.359375 -46.9375 L 38.359375 0 Z M 9.71875 0 "/></g></g></g><g fill="#000000" fill-opacity="1"><g transform="translate(105.750001, 506.826874)"><g><path d="M 2 -27.546875 L 10.546875 -27.546875 C 13.128906 -27.546875 15.1875 -26.992188 16.71875 -25.890625 C 18.257812 -24.785156 19.03125 -23 19.03125 -20.53125 C 19.03125 -17.769531 17.882812 -15.800781 15.59375 -14.625 C 19.507812 -13.9375 21.46875 -11.625 21.46875 -7.6875 C 21.46875 -5.363281 20.664062 -3.5 19.0625 -2.09375 C 17.457031 -0.695312 15.253906 0 12.453125 0 L 2 0 Z M 8.28125 -16.765625 L 8.78125 -16.765625 C 10.1875 -16.765625 11.234375 -17.007812 11.921875 -17.5 C 12.609375 -17.988281 12.953125 -18.789062 12.953125 -19.90625 C 12.953125 -21.769531 11.5625 -22.703125 8.78125 -22.703125 L 8.28125 -22.703125 Z M 8.28125 -4.84375 L 10.25 -4.84375 C 13.320312 -4.84375 14.859375 -5.863281 14.859375 -7.90625 C 14.859375 -9.132812 14.472656 -10.015625 13.703125 -10.546875 C 12.941406 -11.085938 11.789062 -11.359375 10.25 -11.359375 L 8.28125 -11.359375 Z M 8.28125 -4.84375 "/></g></g></g><g fill="#000000" fill-opacity="1"><g transform="translate(129.645708, 506.826874)"><g><path d="M 16 -27.546875 L 27.109375 0 L 20.375 0 L 18.328125 -5.515625 L 7.84375 -5.515625 L 5.8125 0 L -0.9375 0 L 10.1875 -27.546875 Z M 16.1875 -11.015625 L 13.125 -19.03125 L 13.0625 -19.03125 L 9.984375 -11.015625 Z M 16.1875 -11.015625 "/></g></g></g><g fill="#000000" fill-opacity="1"><g transform="translate(157.479262, 506.826874)"><g><path d="M 2 -27.546875 L 10.546875 -27.546875 C 13.128906 -27.546875 15.1875 -26.992188 16.71875 -25.890625 C 18.257812 -24.785156 19.03125 -23 19.03125 -20.53125 C 19.03125 -17.769531 17.882812 -15.800781 15.59375 -14.625 C 19.507812 -13.9375 21.46875 -11.625 21.46875 -7.6875 C 21.46875 -5.363281 20.664062 -3.5 19.0625 -2.09375 C 17.457031 -0.695312 15.253906 0 12.453125 0 L 2 0 Z M 8.28125 -16.765625 L 8.78125 -16.765625 C 10.1875 -16.765625 11.234375 -17.007812 11.921875 -17.5 C 12.609375 -17.988281 12.953125 -18.789062 12.953125 -19.90625 C 12.953125 -21.769531 11.5625 -22.703125 8.78125 -22.703125 L 8.28125 -22.703125 Z M 8.28125 -4.84375 L 10.25 -4.84375 C 13.320312 -4.84375 14.859375 -5.863281 14.859375 -7.90625 C 14.859375 -9.132812 14.472656 -10.015625 13.703125 -10.546875 C 12.941406 -11.085938 11.789062 -11.359375 10.25 -11.359375 L 8.28125 -11.359375 Z M 8.28125 -4.84375 "/></g></g></g><g fill="#000000" fill-opacity="1"><g transform="translate(181.374971, 506.826874)"><g><path d="M -1 -27.546875 L 6.546875 -27.546875 L 12.28125 -18.734375 L 18.03125 -27.546875 L 25.578125 -27.546875 L 15.421875 -12.359375 L 15.421875 0 L 9.15625 0 L 9.15625 -12.359375 Z M -1 -27.546875 "/></g></g></g><g fill="#000000" fill-opacity="1"><g transform="translate(207.606677, 506.826874)"><g/></g></g><g fill="#000000" fill-opacity="1"><g transform="translate(218.387388, 506.826874)"><g><path d="M 26.90625 -15.421875 L 26.90625 -9.453125 C 26.195312 -6.179688 24.640625 -3.703125 22.234375 -2.015625 C 19.828125 -0.335938 17.144531 0.5 14.1875 0.5 C 10.46875 0.5 7.300781 -0.890625 4.6875 -3.671875 C 2.070312 -6.453125 0.765625 -9.8125 0.765625 -13.75 C 0.765625 -17.757812 2.046875 -21.144531 4.609375 -23.90625 C 7.171875 -26.664062 10.363281 -28.046875 14.1875 -28.046875 C 18.664062 -28.046875 22.207031 -26.476562 24.8125 -23.34375 L 20.703125 -18.828125 C 19.234375 -21.191406 17.1875 -22.375 14.5625 -22.375 C 12.625 -22.375 10.96875 -21.53125 9.59375 -19.84375 C 8.226562 -18.164062 7.546875 -16.132812 7.546875 -13.75 C 7.546875 -11.414062 8.226562 -9.421875 9.59375 -7.765625 C 10.96875 -6.109375 12.625 -5.28125 14.5625 -5.28125 C 16.164062 -5.28125 17.5625 -5.765625 18.75 -6.734375 C 19.9375 -7.703125 20.53125 -8.984375 20.53125 -10.578125 L 14.1875 -10.578125 L 14.1875 -15.421875 Z M 26.90625 -15.421875 "/></g></g></g><g fill="#000000" fill-opacity="1"><g transform="translate(247.722639, 506.826874)"><g><path d="M 8.28125 -27.546875 L 8.28125 -5.515625 L 17.765625 -5.515625 L 17.765625 0 L 2 0 L 2 -27.546875 Z M 8.28125 -27.546875 "/></g></g></g><g fill="#000000" fill-opacity="1"><g transform="translate(268.247827, 506.826874)"><g><path d="M 23.171875 -27.546875 L 23.171875 -9.78125 C 23.171875 -6.394531 22.257812 -3.832031 20.4375 -2.09375 C 18.613281 -0.363281 15.941406 0.5 12.421875 0.5 C 8.898438 0.5 6.226562 -0.363281 4.40625 -2.09375 C 2.582031 -3.832031 1.671875 -6.394531 1.671875 -9.78125 L 1.671875 -27.546875 L 7.953125 -27.546875 L 7.953125 -11.625 C 7.953125 -9.394531 8.300781 -7.84375 9 -6.96875 C 9.695312 -6.101562 10.835938 -5.671875 12.421875 -5.671875 C 14.003906 -5.671875 15.144531 -6.101562 15.84375 -6.96875 C 16.539062 -7.84375 16.890625 -9.394531 16.890625 -11.625 L 16.890625 -27.546875 Z M 23.171875 -27.546875 "/></g></g></g><g fill="#000000" fill-opacity="1"><g transform="translate(294.746498, 506.826874)"><g><path d="M 16.65625 -5.671875 C 17.613281 -5.671875 18.539062 -5.816406 19.4375 -6.109375 C 20.34375 -6.398438 21.007812 -6.675781 21.4375 -6.9375 L 22.078125 -7.375 L 24.75 -2.03125 C 24.65625 -1.96875 24.53125 -1.878906 24.375 -1.765625 C 24.21875 -1.660156 23.851562 -1.457031 23.28125 -1.15625 C 22.71875 -0.851562 22.113281 -0.585938 21.46875 -0.359375 C 20.820312 -0.140625 19.972656 0.0546875 18.921875 0.234375 C 17.878906 0.410156 16.800781 0.5 15.6875 0.5 C 13.132812 0.5 10.707031 -0.125 8.40625 -1.375 C 6.113281 -2.632812 4.265625 -4.367188 2.859375 -6.578125 C 1.460938 -8.785156 0.765625 -11.164062 0.765625 -13.71875 C 0.765625 -15.65625 1.175781 -17.515625 2 -19.296875 C 2.820312 -21.078125 3.914062 -22.601562 5.28125 -23.875 C 6.65625 -25.144531 8.253906 -26.15625 10.078125 -26.90625 C 11.910156 -27.664062 13.78125 -28.046875 15.6875 -28.046875 C 17.46875 -28.046875 19.109375 -27.832031 20.609375 -27.40625 C 22.117188 -26.988281 23.1875 -26.566406 23.8125 -26.140625 L 24.75 -25.515625 L 22.078125 -20.171875 C 21.921875 -20.304688 21.6875 -20.46875 21.375 -20.65625 C 21.0625 -20.84375 20.4375 -21.09375 19.5 -21.40625 C 18.5625 -21.71875 17.613281 -21.875 16.65625 -21.875 C 15.144531 -21.875 13.785156 -21.628906 12.578125 -21.140625 C 11.378906 -20.648438 10.429688 -20.003906 9.734375 -19.203125 C 9.035156 -18.398438 8.5 -17.535156 8.125 -16.609375 C 7.757812 -15.679688 7.578125 -14.742188 7.578125 -13.796875 C 7.578125 -11.703125 8.359375 -9.820312 9.921875 -8.15625 C 11.492188 -6.5 13.738281 -5.671875 16.65625 -5.671875 Z M 16.65625 -5.671875 "/></g></g></g><g fill="#000000" fill-opacity="1"><g transform="translate(321.545532, 506.826874)"><g><path d="M 0.765625 -13.796875 C 0.765625 -17.773438 2.125 -21.144531 4.84375 -23.90625 C 7.5625 -26.664062 10.832031 -28.046875 14.65625 -28.046875 C 18.507812 -28.046875 21.78125 -26.671875 24.46875 -23.921875 C 27.164062 -21.171875 28.515625 -17.796875 28.515625 -13.796875 C 28.515625 -9.765625 27.1875 -6.375 24.53125 -3.625 C 21.882812 -0.875 18.59375 0.5 14.65625 0.5 C 10.625 0.5 7.300781 -0.863281 4.6875 -3.59375 C 2.070312 -6.320312 0.765625 -9.722656 0.765625 -13.796875 Z M 7.546875 -13.796875 C 7.546875 -12.347656 7.765625 -11.023438 8.203125 -9.828125 C 8.648438 -8.640625 9.429688 -7.632812 10.546875 -6.8125 C 11.660156 -5.988281 13.03125 -5.578125 14.65625 -5.578125 C 17 -5.578125 18.765625 -6.378906 19.953125 -7.984375 C 21.140625 -9.585938 21.734375 -11.523438 21.734375 -13.796875 C 21.734375 -16.035156 21.125 -17.960938 19.90625 -19.578125 C 18.695312 -21.191406 16.945312 -22 14.65625 -22 C 12.382812 -22 10.628906 -21.191406 9.390625 -19.578125 C 8.160156 -17.960938 7.546875 -16.035156 7.546875 -13.796875 Z M 7.546875 -13.796875 "/></g></g></g><g fill="#000000" fill-opacity="1"><g transform="translate(352.482609, 506.826874)"><g><path d="M 12.15625 -28.046875 C 13.644531 -28.046875 15.101562 -27.828125 16.53125 -27.390625 C 17.957031 -26.960938 19.015625 -26.535156 19.703125 -26.109375 L 20.703125 -25.4375 L 18.171875 -20.4375 C 17.960938 -20.570312 17.679688 -20.742188 17.328125 -20.953125 C 16.972656 -21.160156 16.304688 -21.441406 15.328125 -21.796875 C 14.347656 -22.160156 13.4375 -22.34375 12.59375 -22.34375 C 11.539062 -22.34375 10.726562 -22.117188 10.15625 -21.671875 C 9.59375 -21.222656 9.3125 -20.625 9.3125 -19.875 C 9.3125 -19.488281 9.445312 -19.132812 9.71875 -18.8125 C 9.988281 -18.488281 10.441406 -18.144531 11.078125 -17.78125 C 11.722656 -17.414062 12.289062 -17.117188 12.78125 -16.890625 C 13.269531 -16.671875 14.03125 -16.335938 15.0625 -15.890625 C 16.84375 -15.140625 18.359375 -14.113281 19.609375 -12.8125 C 20.867188 -11.507812 21.5 -10.03125 21.5 -8.375 C 21.5 -6.800781 21.210938 -5.421875 20.640625 -4.234375 C 20.078125 -3.054688 19.300781 -2.132812 18.3125 -1.46875 C 17.320312 -0.800781 16.222656 -0.304688 15.015625 0.015625 C 13.816406 0.335938 12.519531 0.5 11.125 0.5 C 9.914062 0.5 8.734375 0.375 7.578125 0.125 C 6.421875 -0.113281 5.453125 -0.414062 4.671875 -0.78125 C 3.890625 -1.144531 3.1875 -1.503906 2.5625 -1.859375 C 1.945312 -2.222656 1.492188 -2.523438 1.203125 -2.765625 L 0.765625 -3.140625 L 3.90625 -8.421875 C 4.175781 -8.191406 4.539062 -7.90625 5 -7.5625 C 5.46875 -7.21875 6.296875 -6.753906 7.484375 -6.171875 C 8.679688 -5.597656 9.738281 -5.3125 10.65625 -5.3125 C 13.300781 -5.3125 14.625 -6.210938 14.625 -8.015625 C 14.625 -8.390625 14.53125 -8.738281 14.34375 -9.0625 C 14.15625 -9.382812 13.820312 -9.707031 13.34375 -10.03125 C 12.863281 -10.351562 12.4375 -10.609375 12.0625 -10.796875 C 11.695312 -10.984375 11.097656 -11.269531 10.265625 -11.65625 C 9.429688 -12.050781 8.816406 -12.351562 8.421875 -12.5625 C 6.742188 -13.382812 5.445312 -14.410156 4.53125 -15.640625 C 3.625 -16.878906 3.171875 -18.210938 3.171875 -19.640625 C 3.171875 -22.109375 4.082031 -24.125 5.90625 -25.6875 C 7.726562 -27.257812 9.8125 -28.046875 12.15625 -28.046875 Z M 12.15625 -28.046875 "/></g></g></g><g fill="#000000" fill-opacity="1"><g transform="translate(376.578553, 506.826874)"><g><path d="M 17.765625 -27.546875 L 17.765625 -22.03125 L 8.28125 -22.03125 L 8.28125 -16.5625 L 17.359375 -16.5625 L 17.359375 -11.046875 L 8.28125 -11.046875 L 8.28125 -5.515625 L 17.765625 -5.515625 L 17.765625 0 L 2 0 L 2 -27.546875 Z M 17.765625 -27.546875 "/></g></g></g><g fill="#000000" fill-opacity="1"><g transform="translate(397.604314, 506.826874)"><g/></g></g><g fill="#000000" fill-opacity="1"><g transform="translate(408.385038, 506.826874)"><g><path d="M 24.78125 0 L 23.46875 -16.328125 L 23.3125 -16.328125 L 17.65625 -0.171875 L 13.921875 -0.171875 L 8.28125 -16.328125 L 8.109375 -16.328125 L 6.8125 0 L 0.53125 0 L 3 -27.546875 L 9.6875 -27.546875 L 15.796875 -11.65625 L 21.90625 -27.546875 L 28.578125 -27.546875 L 31.046875 0 Z M 24.78125 0 "/></g></g></g><g fill="#000000" fill-opacity="1"><g transform="translate(441.624787, 506.826874)"><g><path d="M 0.765625 -13.796875 C 0.765625 -17.773438 2.125 -21.144531 4.84375 -23.90625 C 7.5625 -26.664062 10.832031 -28.046875 14.65625 -28.046875 C 18.507812 -28.046875 21.78125 -26.671875 24.46875 -23.921875 C 27.164062 -21.171875 28.515625 -17.796875 28.515625 -13.796875 C 28.515625 -9.765625 27.1875 -6.375 24.53125 -3.625 C 21.882812 -0.875 18.59375 0.5 14.65625 0.5 C 10.625 0.5 7.300781 -0.863281 4.6875 -3.59375 C 2.070312 -6.320312 0.765625 -9.722656 0.765625 -13.796875 Z M 7.546875 -13.796875 C 7.546875 -12.347656 7.765625 -11.023438 8.203125 -9.828125 C 8.648438 -8.640625 9.429688 -7.632812 10.546875 -6.8125 C 11.660156 -5.988281 13.03125 -5.578125 14.65625 -5.578125 C 17 -5.578125 18.765625 -6.378906 19.953125 -7.984375 C 21.140625 -9.585938 21.734375 -11.523438 21.734375 -13.796875 C 21.734375 -16.035156 21.125 -17.960938 19.90625 -19.578125 C 18.695312 -21.191406 16.945312 -22 14.65625 -22 C 12.382812 -22 10.628906 -21.191406 9.390625 -19.578125 C 8.160156 -17.960938 7.546875 -16.035156 7.546875 -13.796875 Z M 7.546875 -13.796875 "/></g></g></g><g fill="#000000" fill-opacity="1"><g transform="translate(472.561879, 506.826874)"><g><path d="M 8.28125 -17.09375 L 8.28125 0 L 2 0 L 2 -27.546875 L 8.28125 -27.546875 L 19.234375 -10.453125 L 19.296875 -10.453125 L 19.296875 -27.546875 L 25.578125 -27.546875 L 25.578125 0 L 19.296875 0 L 8.34375 -17.09375 Z M 8.28125 -17.09375 "/></g></g></g><g fill="#000000" fill-opacity="1"><g transform="translate(501.79704, 506.826874)"><g><path d="M 8.28125 -27.546875 L 8.28125 0 L 2 0 L 2 -27.546875 Z M 8.28125 -27.546875 "/></g></g></g><g fill="#000000" fill-opacity="1"><g transform="translate(513.745765, 506.826874)"><g><path d="M 0.265625 -22.03125 L 0.265625 -27.546875 L 19.640625 -27.546875 L 19.640625 -22.03125 L 13.09375 -22.03125 L 13.09375 0 L 6.8125 0 L 6.8125 -22.03125 Z M 0.265625 -22.03125 "/></g></g></g><g fill="#000000" fill-opacity="1"><g transform="translate(535.305484, 506.826874)"><g><path d="M 0.765625 -13.796875 C 0.765625 -17.773438 2.125 -21.144531 4.84375 -23.90625 C 7.5625 -26.664062 10.832031 -28.046875 14.65625 -28.046875 C 18.507812 -28.046875 21.78125 -26.671875 24.46875 -23.921875 C 27.164062 -21.171875 28.515625 -17.796875 28.515625 -13.796875 C 28.515625 -9.765625 27.1875 -6.375 24.53125 -3.625 C 21.882812 -0.875 18.59375 0.5 14.65625 0.5 C 10.625 0.5 7.300781 -0.863281 4.6875 -3.59375 C 2.070312 -6.320312 0.765625 -9.722656 0.765625 -13.796875 Z M 7.546875 -13.796875 C 7.546875 -12.347656 7.765625 -11.023438 8.203125 -9.828125 C 8.648438 -8.640625 9.429688 -7.632812 10.546875 -6.8125 C 11.660156 -5.988281 13.03125 -5.578125 14.65625 -5.578125 C 17 -5.578125 18.765625 -6.378906 19.953125 -7.984375 C 21.140625 -9.585938 21.734375 -11.523438 21.734375 -13.796875 C 21.734375 -16.035156 21.125 -17.960938 19.90625 -19.578125 C 18.695312 -21.191406 16.945312 -22 14.65625 -22 C 12.382812 -22 10.628906 -21.191406 9.390625 -19.578125 C 8.160156 -17.960938 7.546875 -16.035156 7.546875 -13.796875 Z M 7.546875 -13.796875 "/></g></g></g><g fill="#000000" fill-opacity="1"><g transform="translate(566.242576, 506.826874)"><g><path d="M 2 -27.546875 L 11.859375 -27.546875 C 14.503906 -27.546875 16.660156 -26.835938 18.328125 -25.421875 C 19.992188 -24.015625 20.828125 -21.992188 20.828125 -19.359375 C 20.828125 -17.335938 20.320312 -15.640625 19.3125 -14.265625 C 18.300781 -12.898438 16.925781 -11.941406 15.1875 -11.390625 L 24.671875 0 L 16.6875 0 L 8.28125 -10.890625 L 8.28125 0 L 2 0 Z M 8.28125 -15.328125 L 9.015625 -15.328125 C 9.597656 -15.328125 10.085938 -15.335938 10.484375 -15.359375 C 10.878906 -15.378906 11.332031 -15.457031 11.84375 -15.59375 C 12.363281 -15.726562 12.78125 -15.914062 13.09375 -16.15625 C 13.40625 -16.40625 13.671875 -16.765625 13.890625 -17.234375 C 14.109375 -17.703125 14.21875 -18.269531 14.21875 -18.9375 C 14.21875 -19.601562 14.109375 -20.171875 13.890625 -20.640625 C 13.671875 -21.109375 13.40625 -21.460938 13.09375 -21.703125 C 12.78125 -21.953125 12.363281 -22.140625 11.84375 -22.265625 C 11.332031 -22.398438 10.878906 -22.476562 10.484375 -22.5 C 10.085938 -22.519531 9.597656 -22.53125 9.015625 -22.53125 L 8.28125 -22.53125 Z M 8.28125 -15.328125 "/></g></g></g><g fill="#000000" fill-opacity="1"><g transform="translate(591.806827, 506.826874)"><g><path d="M 8.28125 -27.546875 L 8.28125 0 L 2 0 L 2 -27.546875 Z M 8.28125 -27.546875 "/></g></g></g><g fill="#000000" fill-opacity="1"><g transform="translate(603.755523, 506.826874)"><g><path d="M 8.28125 -17.09375 L 8.28125 0 L 2 0 L 2 -27.546875 L 8.28125 -27.546875 L 19.234375 -10.453125 L 19.296875 -10.453125 L 19.296875 -27.546875 L 25.578125 -27.546875 L 25.578125 0 L 19.296875 0 L 8.34375 -17.09375 Z M 8.28125 -17.09375 "/></g></g></g><g fill="#000000" fill-opacity="1"><g transform="translate(632.990656, 506.826874)"><g><path d="M 26.90625 -15.421875 L 26.90625 -9.453125 C 26.195312 -6.179688 24.640625 -3.703125 22.234375 -2.015625 C 19.828125 -0.335938 17.144531 0.5 14.1875 0.5 C 10.46875 0.5 7.300781 -0.890625 4.6875 -3.671875 C 2.070312 -6.453125 0.765625 -9.8125 0.765625 -13.75 C 0.765625 -17.757812 2.046875 -21.144531 4.609375 -23.90625 C 7.171875 -26.664062 10.363281 -28.046875 14.1875 -28.046875 C 18.664062 -28.046875 22.207031 -26.476562 24.8125 -23.34375 L 20.703125 -18.828125 C 19.234375 -21.191406 17.1875 -22.375 14.5625 -22.375 C 12.625 -22.375 10.96875 -21.53125 9.59375 -19.84375 C 8.226562 -18.164062 7.546875 -16.132812 7.546875 -13.75 C 7.546875 -11.414062 8.226562 -9.421875 9.59375 -7.765625 C 10.96875 -6.109375 12.625 -5.28125 14.5625 -5.28125 C 16.164062 -5.28125 17.5625 -5.765625 18.75 -6.734375 C 19.9375 -7.703125 20.53125 -8.984375 20.53125 -10.578125 L 14.1875 -10.578125 L 14.1875 -15.421875 Z M 26.90625 -15.421875 "/></g></g></g><g fill="#000000" fill-opacity="1"><g transform="translate(662.325901, 506.826874)"><g/></g></g><g fill="#000000" fill-opacity="1"><g transform="translate(673.106626, 506.826874)"><g><path d="M 12.15625 -28.046875 C 13.644531 -28.046875 15.101562 -27.828125 16.53125 -27.390625 C 17.957031 -26.960938 19.015625 -26.535156 19.703125 -26.109375 L 20.703125 -25.4375 L 18.171875 -20.4375 C 17.960938 -20.570312 17.679688 -20.742188 17.328125 -20.953125 C 16.972656 -21.160156 16.304688 -21.441406 15.328125 -21.796875 C 14.347656 -22.160156 13.4375 -22.34375 12.59375 -22.34375 C 11.539062 -22.34375 10.726562 -22.117188 10.15625 -21.671875 C 9.59375 -21.222656 9.3125 -20.625 9.3125 -19.875 C 9.3125 -19.488281 9.445312 -19.132812 9.71875 -18.8125 C 9.988281 -18.488281 10.441406 -18.144531 11.078125 -17.78125 C 11.722656 -17.414062 12.289062 -17.117188 12.78125 -16.890625 C 13.269531 -16.671875 14.03125 -16.335938 15.0625 -15.890625 C 16.84375 -15.140625 18.359375 -14.113281 19.609375 -12.8125 C 20.867188 -11.507812 21.5 -10.03125 21.5 -8.375 C 21.5 -6.800781 21.210938 -5.421875 20.640625 -4.234375 C 20.078125 -3.054688 19.300781 -2.132812 18.3125 -1.46875 C 17.320312 -0.800781 16.222656 -0.304688 15.015625 0.015625 C 13.816406 0.335938 12.519531 0.5 11.125 0.5 C 9.914062 0.5 8.734375 0.375 7.578125 0.125 C 6.421875 -0.113281 5.453125 -0.414062 4.671875 -0.78125 C 3.890625 -1.144531 3.1875 -1.503906 2.5625 -1.859375 C 1.945312 -2.222656 1.492188 -2.523438 1.203125 -2.765625 L 0.765625 -3.140625 L 3.90625 -8.421875 C 4.175781 -8.191406 4.539062 -7.90625 5 -7.5625 C 5.46875 -7.21875 6.296875 -6.753906 7.484375 -6.171875 C 8.679688 -5.597656 9.738281 -5.3125 10.65625 -5.3125 C 13.300781 -5.3125 14.625 -6.210938 14.625 -8.015625 C 14.625 -8.390625 14.53125 -8.738281 14.34375 -9.0625 C 14.15625 -9.382812 13.820312 -9.707031 13.34375 -10.03125 C 12.863281 -10.351562 12.4375 -10.609375 12.0625 -10.796875 C 11.695312 -10.984375 11.097656 -11.269531 10.265625 -11.65625 C 9.429688 -12.050781 8.816406 -12.351562 8.421875 -12.5625 C 6.742188 -13.382812 5.445312 -14.410156 4.53125 -15.640625 C 3.625 -16.878906 3.171875 -18.210938 3.171875 -19.640625 C 3.171875 -22.109375 4.082031 -24.125 5.90625 -25.6875 C 7.726562 -27.257812 9.8125 -28.046875 12.15625 -28.046875 Z M 12.15625 -28.046875 "/></g></g></g><g fill="#000000" fill-opacity="1"><g transform="translate(697.202569, 506.826874)"><g><path d="M -1 -27.546875 L 6.546875 -27.546875 L 12.28125 -18.734375 L 18.03125 -27.546875 L 25.578125 -27.546875 L 15.421875 -12.359375 L 15.421875 0 L 9.15625 0 L 9.15625 -12.359375 Z M -1 -27.546875 "/></g></g></g><g fill="#000000" fill-opacity="1"><g transform="translate(723.434289, 506.826874)"><g><path d="M 12.15625 -28.046875 C 13.644531 -28.046875 15.101562 -27.828125 16.53125 -27.390625 C 17.957031 -26.960938 19.015625 -26.535156 19.703125 -26.109375 L 20.703125 -25.4375 L 18.171875 -20.4375 C 17.960938 -20.570312 17.679688 -20.742188 17.328125 -20.953125 C 16.972656 -21.160156 16.304688 -21.441406 15.328125 -21.796875 C 14.347656 -22.160156 13.4375 -22.34375 12.59375 -22.34375 C 11.539062 -22.34375 10.726562 -22.117188 10.15625 -21.671875 C 9.59375 -21.222656 9.3125 -20.625 9.3125 -19.875 C 9.3125 -19.488281 9.445312 -19.132812 9.71875 -18.8125 C 9.988281 -18.488281 10.441406 -18.144531 11.078125 -17.78125 C 11.722656 -17.414062 12.289062 -17.117188 12.78125 -16.890625 C 13.269531 -16.671875 14.03125 -16.335938 15.0625 -15.890625 C 16.84375 -15.140625 18.359375 -14.113281 19.609375 -12.8125 C 20.867188 -11.507812 21.5 -10.03125 21.5 -8.375 C 21.5 -6.800781 21.210938 -5.421875 20.640625 -4.234375 C 20.078125 -3.054688 19.300781 -2.132812 18.3125 -1.46875 C 17.320312 -0.800781 16.222656 -0.304688 15.015625 0.015625 C 13.816406 0.335938 12.519531 0.5 11.125 0.5 C 9.914062 0.5 8.734375 0.375 7.578125 0.125 C 6.421875 -0.113281 5.453125 -0.414062 4.671875 -0.78125 C 3.890625 -1.144531 3.1875 -1.503906 2.5625 -1.859375 C 1.945312 -2.222656 1.492188 -2.523438 1.203125 -2.765625 L 0.765625 -3.140625 L 3.90625 -8.421875 C 4.175781 -8.191406 4.539062 -7.90625 5 -7.5625 C 5.46875 -7.21875 6.296875 -6.753906 7.484375 -6.171875 C 8.679688 -5.597656 9.738281 -5.3125 10.65625 -5.3125 C 13.300781 -5.3125 14.625 -6.210938 14.625 -8.015625 C 14.625 -8.390625 14.53125 -8.738281 14.34375 -9.0625 C 14.15625 -9.382812 13.820312 -9.707031 13.34375 -10.03125 C 12.863281 -10.351562 12.4375 -10.609375 12.0625 -10.796875 C 11.695312 -10.984375 11.097656 -11.269531 10.265625 -11.65625 C 9.429688 -12.050781 8.816406 -12.351562 8.421875 -12.5625 C 6.742188 -13.382812 5.445312 -14.410156 4.53125 -15.640625 C 3.625 -16.878906 3.171875 -18.210938 3.171875 -19.640625 C 3.171875 -22.109375 4.082031 -24.125 5.90625 -25.6875 C 7.726562 -27.257812 9.8125 -28.046875 12.15625 -28.046875 Z M 12.15625 -28.046875 "/></g></g></g><g fill="#000000" fill-opacity="1"><g transform="translate(747.530232, 506.826874)"><g><path d="M 0.265625 -22.03125 L 0.265625 -27.546875 L 19.640625 -27.546875 L 19.640625 -22.03125 L 13.09375 -22.03125 L 13.09375 0 L 6.8125 0 L 6.8125 -22.03125 Z M 0.265625 -22.03125 "/></g></g></g><g fill="#000000" fill-opacity="1"><g transform="translate(769.089951, 506.826874)"><g><path d="M 17.765625 -27.546875 L 17.765625 -22.03125 L 8.28125 -22.03125 L 8.28125 -16.5625 L 17.359375 -16.5625 L 17.359375 -11.046875 L 8.28125 -11.046875 L 8.28125 -5.515625 L 17.765625 -5.515625 L 17.765625 0 L 2 0 L 2 -27.546875 Z M 17.765625 -27.546875 "/></g></g></g><g fill="#000000" fill-opacity="1"><g transform="translate(790.115684, 506.826874)"><g><path d="M 24.78125 0 L 23.46875 -16.328125 L 23.3125 -16.328125 L 17.65625 -0.171875 L 13.921875 -0.171875 L 8.28125 -16.328125 L 8.109375 -16.328125 L 6.8125 0 L 0.53125 0 L 3 -27.546875 L 9.6875 -27.546875 L 15.796875 -11.65625 L 21.90625 -27.546875 L 28.578125 -27.546875 L 31.046875 0 Z M 24.78125 0 "/></g></g></g></svg>