<svg xmlns="http://www.w3.org/2000/svg" xmlns:xlink="http://www.w3.org/1999/xlink" zoomAndPan="magnify" preserveAspectRatio="xMidYMid meet" version="1.0" viewBox="107.75 286.7 1176.28 226.66"><defs><g/></defs><g fill="#ffffff" fill-opacity="1"><g transform="translate(468.150031, 423.299109)"><g><path d="M 53.515625 -30.671875 L 53.515625 -18.78125 C 52.097656 -12.28125 49 -7.359375 44.21875 -4.015625 C 39.4375 -0.671875 34.101562 1 28.21875 1 C 20.820312 1 14.523438 -1.765625 9.328125 -7.296875 C 4.128906 -12.835938 1.53125 -19.523438 1.53125 -27.359375 C 1.53125 -35.316406 4.070312 -42.039062 9.15625 -47.53125 C 14.25 -53.019531 20.601562 -55.765625 28.21875 -55.765625 C 37.113281 -55.765625 44.148438 -52.644531 49.328125 -46.40625 L 41.15625 -37.4375 C 38.238281 -42.132812 34.171875 -44.484375 28.953125 -44.484375 C 25.097656 -44.484375 21.804688 -42.8125 19.078125 -39.46875 C 16.359375 -36.125 15 -32.085938 15 -27.359375 C 15 -22.703125 16.359375 -18.722656 19.078125 -15.421875 C 21.804688 -12.128906 25.097656 -10.484375 28.953125 -10.484375 C 32.128906 -10.484375 34.898438 -11.445312 37.265625 -13.375 C 39.640625 -15.300781 40.828125 -17.859375 40.828125 -21.046875 L 28.21875 -21.046875 L 28.21875 -30.671875 Z M 53.515625 -30.671875 "/></g></g></g><g fill="#ffffff" fill-opacity="1"><g transform="translate(519.870546, 423.299109)"><g><path d="M 3.984375 0 L 3.984375 -57.09375 L 15.734375 -57.09375 L 15.734375 0 Z M 3.984375 0 "/></g></g></g><g fill="#ffffff" fill-opacity="1"><g transform="translate(536.269736, 423.299109)"><g><path d="M 15.078125 -34.0625 L 15.078125 -17.859375 C 15.078125 -14.492188 15.582031 -12.101562 16.59375 -10.6875 C 17.613281 -9.269531 19.335938 -8.5625 21.765625 -8.5625 C 24.203125 -8.5625 25.929688 -9.269531 26.953125 -10.6875 C 27.972656 -12.101562 28.484375 -14.492188 28.484375 -17.859375 L 28.484375 -34.0625 L 40.234375 -34.0625 L 40.234375 -15 C 40.234375 -9.332031 38.757812 -5.25 35.8125 -2.75 C 32.875 -0.25 28.195312 1 21.78125 1 C 15.363281 1 10.679688 -0.25 7.734375 -2.75 C 4.785156 -5.25 3.3125 -9.332031 3.3125 -15 L 3.3125 -34.0625 Z M 15.078125 -34.0625 "/></g></g></g><g fill="#ffffff" fill-opacity="1"><g transform="translate(576.504182, 423.299109)"><g><path d="M 22.109375 -25.421875 C 19.890625 -25.421875 17.984375 -24.601562 16.390625 -22.96875 C 14.804688 -21.332031 14.015625 -19.363281 14.015625 -17.0625 C 14.015625 -14.71875 14.804688 -12.722656 16.390625 -11.078125 C 17.984375 -9.441406 19.890625 -8.625 22.109375 -8.625 C 23.171875 -8.625 24.175781 -8.753906 25.125 -9.015625 C 26.082031 -9.285156 26.78125 -9.554688 27.21875 -9.828125 L 27.8125 -10.21875 L 31.796875 -2.0625 C 31.492188 -1.832031 31.0625 -1.550781 30.5 -1.21875 C 29.945312 -0.894531 28.6875 -0.445312 26.71875 0.125 C 24.75 0.707031 22.632812 1 20.375 1 C 15.375 1 10.984375 -0.757812 7.203125 -4.28125 C 3.421875 -7.800781 1.53125 -12.015625 1.53125 -16.921875 C 1.53125 -21.878906 3.421875 -26.140625 7.203125 -29.703125 C 10.984375 -33.265625 15.375 -35.046875 20.375 -35.046875 C 22.632812 -35.046875 24.71875 -34.78125 26.625 -34.25 C 28.53125 -33.71875 29.878906 -33.191406 30.671875 -32.671875 L 31.796875 -31.875 L 27.8125 -23.828125 C 26.351562 -24.890625 24.453125 -25.421875 22.109375 -25.421875 Z M 22.109375 -25.421875 "/></g></g></g><g fill="#ffffff" fill-opacity="1"><g transform="translate(605.783704, 423.299109)"><g><path d="M 7.203125 -4.046875 C 3.421875 -7.410156 1.53125 -11.722656 1.53125 -16.984375 C 1.53125 -22.253906 3.5 -26.582031 7.4375 -29.96875 C 11.375 -33.351562 16.242188 -35.046875 22.046875 -35.046875 C 27.753906 -35.046875 32.566406 -33.34375 36.484375 -29.9375 C 40.398438 -26.53125 42.359375 -22.210938 42.359375 -16.984375 C 42.359375 -11.765625 40.441406 -7.460938 36.609375 -4.078125 C 32.785156 -0.691406 27.929688 1 22.046875 1 C 15.929688 1 10.984375 -0.679688 7.203125 -4.046875 Z M 16.296875 -22.765625 C 14.773438 -21.265625 14.015625 -19.34375 14.015625 -17 C 14.015625 -14.65625 14.742188 -12.738281 16.203125 -11.25 C 17.660156 -9.769531 19.582031 -9.03125 21.96875 -9.03125 C 24.269531 -9.03125 26.160156 -9.78125 27.640625 -11.28125 C 29.128906 -12.789062 29.875 -14.695312 29.875 -17 C 29.875 -19.34375 29.109375 -21.265625 27.578125 -22.765625 C 26.054688 -24.273438 24.1875 -25.03125 21.96875 -25.03125 C 19.71875 -25.03125 17.828125 -24.273438 16.296875 -22.765625 Z M 16.296875 -22.765625 "/></g></g></g><g fill="#ffffff" fill-opacity="1"><g transform="translate(646.350116, 423.299109)"><g><path d="M 53.515625 -30.671875 L 53.515625 -18.78125 C 52.097656 -12.28125 49 -7.359375 44.21875 -4.015625 C 39.4375 -0.671875 34.101562 1 28.21875 1 C 20.820312 1 14.523438 -1.765625 9.328125 -7.296875 C 4.128906 -12.835938 1.53125 -19.523438 1.53125 -27.359375 C 1.53125 -35.316406 4.070312 -42.039062 9.15625 -47.53125 C 14.25 -53.019531 20.601562 -55.765625 28.21875 -55.765625 C 37.113281 -55.765625 44.148438 -52.644531 49.328125 -46.40625 L 41.15625 -37.4375 C 38.238281 -42.132812 34.171875 -44.484375 28.953125 -44.484375 C 25.097656 -44.484375 21.804688 -42.8125 19.078125 -39.46875 C 16.359375 -36.125 15 -32.085938 15 -27.359375 C 15 -22.703125 16.359375 -18.722656 19.078125 -15.421875 C 21.804688 -12.128906 25.097656 -10.484375 28.953125 -10.484375 C 32.128906 -10.484375 34.898438 -11.445312 37.265625 -13.375 C 39.640625 -15.300781 40.828125 -17.859375 40.828125 -21.046875 L 28.21875 -21.046875 L 28.21875 -30.671875 Z M 53.515625 -30.671875 "/></g></g></g><g fill="#ffffff" fill-opacity="1"><g transform="translate(698.070631, 423.299109)"><g><path d="M 15.078125 -34.0625 L 15.078125 -17.859375 C 15.078125 -14.492188 15.582031 -12.101562 16.59375 -10.6875 C 17.613281 -9.269531 19.335938 -8.5625 21.765625 -8.5625 C 24.203125 -8.5625 25.929688 -9.269531 26.953125 -10.6875 C 27.972656 -12.101562 28.484375 -14.492188 28.484375 -17.859375 L 28.484375 -34.0625 L 40.234375 -34.0625 L 40.234375 -15 C 40.234375 -9.332031 38.757812 -5.25 35.8125 -2.75 C 32.875 -0.25 28.195312 1 21.78125 1 C 15.363281 1 10.679688 -0.25 7.734375 -2.75 C 4.785156 -5.25 3.3125 -9.332031 3.3125 -15 L 3.3125 -34.0625 Z M 15.078125 -34.0625 "/></g></g></g><g fill="#ffffff" fill-opacity="1"><g transform="translate(738.305069, 423.299109)"><g><path d="M 6.3125 -4.203125 C 3.125 -7.679688 1.53125 -11.941406 1.53125 -16.984375 C 1.53125 -22.035156 3.125 -26.304688 6.3125 -29.796875 C 9.5 -33.296875 13.546875 -35.046875 18.453125 -35.046875 C 22.972656 -35.046875 26.691406 -33.632812 29.609375 -30.8125 L 29.609375 -34.0625 L 41.359375 -34.0625 L 41.359375 0 L 29.75 0 L 29.75 -3.84375 L 29.609375 -3.84375 C 26.691406 -0.613281 22.972656 1 18.453125 1 C 13.546875 1 9.5 -0.734375 6.3125 -4.203125 Z M 16.296875 -22.765625 C 14.773438 -21.265625 14.015625 -19.34375 14.015625 -17 C 14.015625 -14.65625 14.742188 -12.738281 16.203125 -11.25 C 17.660156 -9.769531 19.582031 -9.03125 21.96875 -9.03125 C 24.269531 -9.03125 26.160156 -9.78125 27.640625 -11.28125 C 29.128906 -12.789062 29.875 -14.695312 29.875 -17 C 29.875 -19.34375 29.109375 -21.265625 27.578125 -22.765625 C 26.054688 -24.273438 24.1875 -25.03125 21.96875 -25.03125 C 19.71875 -25.03125 17.828125 -24.273438 16.296875 -22.765625 Z M 16.296875 -22.765625 "/></g></g></g><g fill="#ffffff" fill-opacity="1"><g transform="translate(780.33213, 423.299109)"><g><path d="M 3.984375 0 L 3.984375 -34.0625 L 15.734375 -34.0625 L 15.734375 -29.140625 L 15.875 -29.140625 C 15.957031 -29.316406 16.097656 -29.535156 16.296875 -29.796875 C 16.492188 -30.066406 16.925781 -30.535156 17.59375 -31.203125 C 18.257812 -31.867188 18.96875 -32.46875 19.71875 -33 C 20.46875 -33.53125 21.441406 -34.003906 22.640625 -34.421875 C 23.835938 -34.835938 25.054688 -35.046875 26.296875 -35.046875 C 27.578125 -35.046875 28.835938 -34.867188 30.078125 -34.515625 C 31.316406 -34.160156 32.222656 -33.804688 32.796875 -33.453125 L 33.71875 -32.9375 L 28.8125 -22.96875 C 27.351562 -24.207031 25.316406 -24.828125 22.703125 -24.828125 C 21.285156 -24.828125 20.066406 -24.515625 19.046875 -23.890625 C 18.035156 -23.273438 17.316406 -22.523438 16.890625 -21.640625 C 16.472656 -20.753906 16.175781 -20 16 -19.375 C 15.820312 -18.757812 15.734375 -18.273438 15.734375 -17.921875 L 15.734375 0 Z M 3.984375 0 "/></g></g></g><g fill="#ffffff" fill-opacity="1"><g transform="translate(810.076397, 423.299109)"><g><path d="M 6.3125 -4.203125 C 3.125 -7.679688 1.53125 -11.941406 1.53125 -16.984375 C 1.53125 -22.035156 3.125 -26.304688 6.3125 -29.796875 C 9.5 -33.296875 13.546875 -35.046875 18.453125 -35.046875 C 22.972656 -35.046875 26.691406 -33.632812 29.609375 -30.8125 L 29.609375 -57.09375 L 41.359375 -57.09375 L 41.359375 0 L 29.75 0 L 29.75 -3.84375 L 29.609375 -3.84375 C 26.691406 -0.613281 22.972656 1 18.453125 1 C 13.546875 1 9.5 -0.734375 6.3125 -4.203125 Z M 16.296875 -22.765625 C 14.773438 -21.265625 14.015625 -19.34375 14.015625 -17 C 14.015625 -14.65625 14.742188 -12.738281 16.203125 -11.25 C 17.660156 -9.769531 19.582031 -9.03125 21.96875 -9.03125 C 24.269531 -9.03125 26.160156 -9.78125 27.640625 -11.28125 C 29.128906 -12.789062 29.875 -14.695312 29.875 -17 C 29.875 -19.34375 29.109375 -21.265625 27.578125 -22.765625 C 26.054688 -24.273438 24.1875 -25.03125 21.96875 -25.03125 C 19.71875 -25.03125 17.828125 -24.273438 16.296875 -22.765625 Z M 16.296875 -22.765625 "/></g></g></g><g fill="#ffffff" fill-opacity="1"><g transform="translate(852.103457, 423.299109)"><g><path d="M 5.109375 -53.046875 C 6.484375 -54.421875 8.117188 -55.109375 10.015625 -55.109375 C 11.921875 -55.109375 13.5625 -54.421875 14.9375 -53.046875 C 16.3125 -51.671875 17 -50.03125 17 -48.125 C 17 -46.226562 16.3125 -44.59375 14.9375 -43.21875 C 13.5625 -41.84375 11.921875 -41.15625 10.015625 -41.15625 C 8.117188 -41.15625 6.484375 -41.84375 5.109375 -43.21875 C 3.734375 -44.59375 3.046875 -46.226562 3.046875 -48.125 C 3.046875 -50.03125 3.734375 -51.671875 5.109375 -53.046875 Z M 3.984375 -34.0625 L 3.984375 0 L 15.734375 0 L 15.734375 -34.0625 Z M 3.984375 -34.0625 "/></g></g></g><g fill="#ffffff" fill-opacity="1"><g transform="translate(868.834612, 423.299109)"><g><path d="M 6.3125 -4.203125 C 3.125 -7.679688 1.53125 -11.941406 1.53125 -16.984375 C 1.53125 -22.035156 3.125 -26.304688 6.3125 -29.796875 C 9.5 -33.296875 13.546875 -35.046875 18.453125 -35.046875 C 22.972656 -35.046875 26.691406 -33.632812 29.609375 -30.8125 L 29.609375 -34.0625 L 41.359375 -34.0625 L 41.359375 0 L 29.75 0 L 29.75 -3.84375 L 29.609375 -3.84375 C 26.691406 -0.613281 22.972656 1 18.453125 1 C 13.546875 1 9.5 -0.734375 6.3125 -4.203125 Z M 16.296875 -22.765625 C 14.773438 -21.265625 14.015625 -19.34375 14.015625 -17 C 14.015625 -14.65625 14.742188 -12.738281 16.203125 -11.25 C 17.660156 -9.769531 19.582031 -9.03125 21.96875 -9.03125 C 24.269531 -9.03125 26.160156 -9.78125 27.640625 -11.28125 C 29.128906 -12.789062 29.875 -14.695312 29.875 -17 C 29.875 -19.34375 29.109375 -21.265625 27.578125 -22.765625 C 26.054688 -24.273438 24.1875 -25.03125 21.96875 -25.03125 C 19.71875 -25.03125 17.828125 -24.273438 16.296875 -22.765625 Z M 16.296875 -22.765625 "/></g></g></g><g fill="#ffffff" fill-opacity="1"><g transform="translate(910.861673, 423.299109)"><g><path d="M 3.984375 0 L 3.984375 -34.0625 L 15.734375 -34.0625 L 15.734375 -30.46875 L 15.875 -30.46875 C 18.925781 -33.519531 22.175781 -35.046875 25.625 -35.046875 C 27.3125 -35.046875 28.984375 -34.820312 30.640625 -34.375 C 32.296875 -33.9375 33.882812 -33.253906 35.40625 -32.328125 C 36.9375 -31.398438 38.175781 -30.082031 39.125 -28.375 C 40.082031 -26.675781 40.5625 -24.695312 40.5625 -22.4375 L 40.5625 0 L 28.8125 0 L 28.8125 -19.25 C 28.8125 -21.019531 28.242188 -22.566406 27.109375 -23.890625 C 25.984375 -25.222656 24.515625 -25.890625 22.703125 -25.890625 C 20.929688 -25.890625 19.328125 -25.203125 17.890625 -23.828125 C 16.453125 -22.460938 15.734375 -20.9375 15.734375 -19.25 L 15.734375 0 Z M 3.984375 0 "/></g></g></g><g fill="#ffffff" fill-opacity="1"><g transform="translate(467.997687, 458.956773)"><g><path d="M 0.828125 -11.296875 L 4.328125 -11.296875 C 5.378906 -11.296875 6.21875 -11.066406 6.84375 -10.609375 C 7.476562 -10.160156 7.796875 -9.429688 7.796875 -8.421875 C 7.796875 -7.285156 7.328125 -6.476562 6.390625 -6 C 7.992188 -5.71875 8.796875 -4.765625 8.796875 -3.140625 C 8.796875 -2.191406 8.46875 -1.429688 7.8125 -0.859375 C 7.15625 -0.285156 6.253906 0 5.109375 0 L 0.828125 0 Z M 3.390625 -6.875 L 3.59375 -6.875 C 4.175781 -6.875 4.609375 -6.972656 4.890625 -7.171875 C 5.171875 -7.367188 5.3125 -7.695312 5.3125 -8.15625 C 5.3125 -8.925781 4.738281 -9.3125 3.59375 -9.3125 L 3.390625 -9.3125 Z M 3.390625 -1.984375 L 4.203125 -1.984375 C 5.460938 -1.984375 6.09375 -2.40625 6.09375 -3.25 C 6.09375 -3.75 5.929688 -4.109375 5.609375 -4.328125 C 5.296875 -4.546875 4.828125 -4.65625 4.203125 -4.65625 L 3.390625 -4.65625 Z M 3.390625 -1.984375 "/></g></g></g><g fill="#ffffff" fill-opacity="1"><g transform="translate(477.798631, 458.956773)"><g><path d="M 6.5625 -11.296875 L 11.109375 0 L 8.34375 0 L 7.515625 -2.265625 L 3.21875 -2.265625 L 2.375 0 L -0.390625 0 L 4.171875 -11.296875 Z M 6.640625 -4.515625 L 5.375 -7.796875 L 5.359375 -7.796875 L 4.09375 -4.515625 Z M 6.640625 -4.515625 "/></g></g></g><g fill="#ffffff" fill-opacity="1"><g transform="translate(489.214702, 458.956773)"><g><path d="M 0.828125 -11.296875 L 4.328125 -11.296875 C 5.378906 -11.296875 6.21875 -11.066406 6.84375 -10.609375 C 7.476562 -10.160156 7.796875 -9.429688 7.796875 -8.421875 C 7.796875 -7.285156 7.328125 -6.476562 6.390625 -6 C 7.992188 -5.71875 8.796875 -4.765625 8.796875 -3.140625 C 8.796875 -2.191406 8.46875 -1.429688 7.8125 -0.859375 C 7.15625 -0.285156 6.253906 0 5.109375 0 L 0.828125 0 Z M 3.390625 -6.875 L 3.59375 -6.875 C 4.175781 -6.875 4.609375 -6.972656 4.890625 -7.171875 C 5.171875 -7.367188 5.3125 -7.695312 5.3125 -8.15625 C 5.3125 -8.925781 4.738281 -9.3125 3.59375 -9.3125 L 3.390625 -9.3125 Z M 3.390625 -1.984375 L 4.203125 -1.984375 C 5.460938 -1.984375 6.09375 -2.40625 6.09375 -3.25 C 6.09375 -3.75 5.929688 -4.109375 5.609375 -4.328125 C 5.296875 -4.546875 4.828125 -4.65625 4.203125 -4.65625 L 3.390625 -4.65625 Z M 3.390625 -1.984375 "/></g></g></g><g fill="#ffffff" fill-opacity="1"><g transform="translate(499.015646, 458.956773)"><g><path d="M -0.40625 -11.296875 L 2.6875 -11.296875 L 5.03125 -7.671875 L 7.390625 -11.296875 L 10.484375 -11.296875 L 6.328125 -5.0625 L 6.328125 0 L 3.75 0 L 3.75 -5.0625 Z M -0.40625 -11.296875 "/></g></g></g><g fill="#ffffff" fill-opacity="1"><g transform="translate(509.774711, 458.956773)"><g/></g></g><g fill="#ffffff" fill-opacity="1"><g transform="translate(514.196473, 458.956773)"><g><path d="M 11.03125 -6.328125 L 11.03125 -3.875 C 10.738281 -2.53125 10.097656 -1.515625 9.109375 -0.828125 C 8.128906 -0.140625 7.03125 0.203125 5.8125 0.203125 C 4.289062 0.203125 2.992188 -0.363281 1.921875 -1.5 C 0.847656 -2.644531 0.3125 -4.023438 0.3125 -5.640625 C 0.3125 -7.285156 0.835938 -8.671875 1.890625 -9.796875 C 2.941406 -10.929688 4.25 -11.5 5.8125 -11.5 C 7.644531 -11.5 9.097656 -10.851562 10.171875 -9.5625 L 8.484375 -7.71875 C 7.878906 -8.6875 7.039062 -9.171875 5.96875 -9.171875 C 5.175781 -9.171875 4.5 -8.828125 3.9375 -8.140625 C 3.375 -7.453125 3.09375 -6.617188 3.09375 -5.640625 C 3.09375 -4.679688 3.375 -3.859375 3.9375 -3.171875 C 4.5 -2.492188 5.175781 -2.15625 5.96875 -2.15625 C 6.625 -2.15625 7.195312 -2.351562 7.6875 -2.75 C 8.175781 -3.15625 8.421875 -3.6875 8.421875 -4.34375 L 5.8125 -4.34375 L 5.8125 -6.328125 Z M 11.03125 -6.328125 "/></g></g></g><g fill="#ffffff" fill-opacity="1"><g transform="translate(526.228473, 458.956773)"><g><path d="M 3.390625 -11.296875 L 3.390625 -2.265625 L 7.28125 -2.265625 L 7.28125 0 L 0.828125 0 L 0.828125 -11.296875 Z M 3.390625 -11.296875 "/></g></g></g><g fill="#ffffff" fill-opacity="1"><g transform="translate(534.646981, 458.956773)"><g><path d="M 9.5 -11.296875 L 9.5 -4.015625 C 9.5 -2.628906 9.125 -1.578125 8.375 -0.859375 C 7.625 -0.148438 6.523438 0.203125 5.078125 0.203125 C 3.640625 0.203125 2.546875 -0.148438 1.796875 -0.859375 C 1.054688 -1.578125 0.6875 -2.628906 0.6875 -4.015625 L 0.6875 -11.296875 L 3.25 -11.296875 L 3.25 -4.765625 C 3.25 -3.847656 3.394531 -3.210938 3.6875 -2.859375 C 3.976562 -2.503906 4.445312 -2.328125 5.09375 -2.328125 C 5.738281 -2.328125 6.203125 -2.503906 6.484375 -2.859375 C 6.773438 -3.210938 6.921875 -3.847656 6.921875 -4.765625 L 6.921875 -11.296875 Z M 9.5 -11.296875 "/></g></g></g><g fill="#ffffff" fill-opacity="1"><g transform="translate(545.515543, 458.956773)"><g><path d="M 6.828125 -2.328125 C 7.222656 -2.328125 7.601562 -2.382812 7.96875 -2.5 C 8.34375 -2.625 8.613281 -2.738281 8.78125 -2.84375 L 9.046875 -3.03125 L 10.140625 -0.828125 C 10.109375 -0.804688 10.054688 -0.769531 9.984375 -0.71875 C 9.921875 -0.675781 9.773438 -0.59375 9.546875 -0.46875 C 9.316406 -0.34375 9.066406 -0.234375 8.796875 -0.140625 C 8.535156 -0.0546875 8.191406 0.0195312 7.765625 0.09375 C 7.335938 0.164062 6.894531 0.203125 6.4375 0.203125 C 5.382812 0.203125 4.390625 -0.0507812 3.453125 -0.5625 C 2.515625 -1.082031 1.753906 -1.789062 1.171875 -2.6875 C 0.597656 -3.59375 0.3125 -4.570312 0.3125 -5.625 C 0.3125 -6.414062 0.476562 -7.175781 0.8125 -7.90625 C 1.15625 -8.632812 1.609375 -9.257812 2.171875 -9.78125 C 2.734375 -10.300781 3.382812 -10.71875 4.125 -11.03125 C 4.875 -11.34375 5.644531 -11.5 6.4375 -11.5 C 7.164062 -11.5 7.835938 -11.410156 8.453125 -11.234375 C 9.066406 -11.066406 9.503906 -10.894531 9.765625 -10.71875 L 10.140625 -10.453125 L 9.046875 -8.265625 C 8.984375 -8.316406 8.882812 -8.378906 8.75 -8.453125 C 8.625 -8.535156 8.367188 -8.640625 7.984375 -8.765625 C 7.609375 -8.898438 7.222656 -8.96875 6.828125 -8.96875 C 6.210938 -8.96875 5.65625 -8.863281 5.15625 -8.65625 C 4.664062 -8.457031 4.273438 -8.191406 3.984375 -7.859375 C 3.703125 -7.535156 3.484375 -7.179688 3.328125 -6.796875 C 3.179688 -6.421875 3.109375 -6.039062 3.109375 -5.65625 C 3.109375 -4.789062 3.425781 -4.019531 4.0625 -3.34375 C 4.707031 -2.664062 5.628906 -2.328125 6.828125 -2.328125 Z M 6.828125 -2.328125 "/></g></g></g><g fill="#ffffff" fill-opacity="1"><g transform="translate(556.507301, 458.956773)"><g><path d="M 0.3125 -5.65625 C 0.3125 -7.289062 0.867188 -8.671875 1.984375 -9.796875 C 3.097656 -10.929688 4.441406 -11.5 6.015625 -11.5 C 7.585938 -11.5 8.925781 -10.929688 10.03125 -9.796875 C 11.132812 -8.671875 11.6875 -7.289062 11.6875 -5.65625 C 11.6875 -4 11.144531 -2.609375 10.0625 -1.484375 C 8.976562 -0.359375 7.628906 0.203125 6.015625 0.203125 C 4.359375 0.203125 2.992188 -0.351562 1.921875 -1.46875 C 0.847656 -2.582031 0.3125 -3.976562 0.3125 -5.65625 Z M 3.09375 -5.65625 C 3.09375 -5.0625 3.179688 -4.519531 3.359375 -4.03125 C 3.546875 -3.539062 3.867188 -3.125 4.328125 -2.78125 C 4.785156 -2.445312 5.347656 -2.28125 6.015625 -2.28125 C 6.972656 -2.28125 7.691406 -2.609375 8.171875 -3.265625 C 8.660156 -3.921875 8.90625 -4.71875 8.90625 -5.65625 C 8.90625 -6.570312 8.65625 -7.359375 8.15625 -8.015625 C 7.664062 -8.679688 6.953125 -9.015625 6.015625 -9.015625 C 5.078125 -9.015625 4.351562 -8.679688 3.84375 -8.015625 C 3.34375 -7.359375 3.09375 -6.570312 3.09375 -5.65625 Z M 3.09375 -5.65625 "/></g></g></g><g fill="#ffffff" fill-opacity="1"><g transform="translate(569.196298, 458.956773)"><g><path d="M 4.984375 -11.5 C 5.597656 -11.5 6.195312 -11.410156 6.78125 -11.234375 C 7.363281 -11.054688 7.796875 -10.878906 8.078125 -10.703125 L 8.484375 -10.4375 L 7.453125 -8.375 C 7.367188 -8.425781 7.253906 -8.492188 7.109375 -8.578125 C 6.960938 -8.671875 6.6875 -8.789062 6.28125 -8.9375 C 5.882812 -9.082031 5.507812 -9.15625 5.15625 -9.15625 C 4.726562 -9.15625 4.394531 -9.0625 4.15625 -8.875 C 3.925781 -8.695312 3.8125 -8.453125 3.8125 -8.140625 C 3.8125 -7.984375 3.863281 -7.835938 3.96875 -7.703125 C 4.082031 -7.578125 4.269531 -7.4375 4.53125 -7.28125 C 4.800781 -7.132812 5.035156 -7.015625 5.234375 -6.921875 C 5.441406 -6.828125 5.753906 -6.691406 6.171875 -6.515625 C 6.898438 -6.203125 7.519531 -5.78125 8.03125 -5.25 C 8.550781 -4.71875 8.8125 -4.113281 8.8125 -3.4375 C 8.8125 -2.789062 8.691406 -2.222656 8.453125 -1.734375 C 8.222656 -1.253906 7.90625 -0.875 7.5 -0.59375 C 7.101562 -0.320312 6.65625 -0.125 6.15625 0 C 5.664062 0.132812 5.132812 0.203125 4.5625 0.203125 C 4.0625 0.203125 3.570312 0.148438 3.09375 0.046875 C 2.625 -0.046875 2.226562 -0.164062 1.90625 -0.3125 C 1.59375 -0.46875 1.304688 -0.617188 1.046875 -0.765625 C 0.796875 -0.910156 0.613281 -1.035156 0.5 -1.140625 L 0.3125 -1.28125 L 1.59375 -3.453125 C 1.707031 -3.359375 1.859375 -3.238281 2.046875 -3.09375 C 2.242188 -2.957031 2.585938 -2.769531 3.078125 -2.53125 C 3.566406 -2.289062 3.992188 -2.171875 4.359375 -2.171875 C 5.453125 -2.171875 6 -2.539062 6 -3.28125 C 6 -3.4375 5.957031 -3.582031 5.875 -3.71875 C 5.800781 -3.851562 5.664062 -3.984375 5.46875 -4.109375 C 5.269531 -4.242188 5.09375 -4.347656 4.9375 -4.421875 C 4.789062 -4.503906 4.546875 -4.625 4.203125 -4.78125 C 3.867188 -4.9375 3.617188 -5.054688 3.453125 -5.140625 C 2.765625 -5.484375 2.234375 -5.90625 1.859375 -6.40625 C 1.484375 -6.914062 1.296875 -7.460938 1.296875 -8.046875 C 1.296875 -9.054688 1.671875 -9.882812 2.421875 -10.53125 C 3.171875 -11.175781 4.023438 -11.5 4.984375 -11.5 Z M 4.984375 -11.5 "/></g></g></g><g fill="#ffffff" fill-opacity="1"><g transform="translate(579.079369, 458.956773)"><g><path d="M 7.28125 -11.296875 L 7.28125 -9.03125 L 3.390625 -9.03125 L 3.390625 -6.78125 L 7.125 -6.78125 L 7.125 -4.53125 L 3.390625 -4.53125 L 3.390625 -2.265625 L 7.28125 -2.265625 L 7.28125 0 L 0.828125 0 L 0.828125 -11.296875 Z M 7.28125 -11.296875 "/></g></g></g><g fill="#ffffff" fill-opacity="1"><g transform="translate(587.70319, 458.956773)"><g/></g></g><g fill="#ffffff" fill-opacity="1"><g transform="translate(592.124958, 458.956773)"><g><path d="M 10.15625 0 L 9.625 -6.6875 L 9.546875 -6.6875 L 7.234375 -0.0625 L 5.703125 -0.0625 L 3.390625 -6.6875 L 3.328125 -6.6875 L 2.796875 0 L 0.21875 0 L 1.234375 -11.296875 L 3.96875 -11.296875 L 6.46875 -4.78125 L 8.984375 -11.296875 L 11.71875 -11.296875 L 12.734375 0 Z M 10.15625 0 "/></g></g></g><g fill="#ffffff" fill-opacity="1"><g transform="translate(605.758407, 458.956773)"><g><path d="M 0.3125 -5.65625 C 0.3125 -7.289062 0.867188 -8.671875 1.984375 -9.796875 C 3.097656 -10.929688 4.441406 -11.5 6.015625 -11.5 C 7.585938 -11.5 8.925781 -10.929688 10.03125 -9.796875 C 11.132812 -8.671875 11.6875 -7.289062 11.6875 -5.65625 C 11.6875 -4 11.144531 -2.609375 10.0625 -1.484375 C 8.976562 -0.359375 7.628906 0.203125 6.015625 0.203125 C 4.359375 0.203125 2.992188 -0.351562 1.921875 -1.46875 C 0.847656 -2.582031 0.3125 -3.976562 0.3125 -5.65625 Z M 3.09375 -5.65625 C 3.09375 -5.0625 3.179688 -4.519531 3.359375 -4.03125 C 3.546875 -3.539062 3.867188 -3.125 4.328125 -2.78125 C 4.785156 -2.445312 5.347656 -2.28125 6.015625 -2.28125 C 6.972656 -2.28125 7.691406 -2.609375 8.171875 -3.265625 C 8.660156 -3.921875 8.90625 -4.71875 8.90625 -5.65625 C 8.90625 -6.570312 8.65625 -7.359375 8.15625 -8.015625 C 7.664062 -8.679688 6.953125 -9.015625 6.015625 -9.015625 C 5.078125 -9.015625 4.351562 -8.679688 3.84375 -8.015625 C 3.34375 -7.359375 3.09375 -6.570312 3.09375 -5.65625 Z M 3.09375 -5.65625 "/></g></g></g><g fill="#ffffff" fill-opacity="1"><g transform="translate(618.44741, 458.956773)"><g><path d="M 3.390625 -7.015625 L 3.390625 0 L 0.828125 0 L 0.828125 -11.296875 L 3.390625 -11.296875 L 7.890625 -4.28125 L 7.90625 -4.28125 L 7.90625 -11.296875 L 10.484375 -11.296875 L 10.484375 0 L 7.90625 0 L 3.421875 -7.015625 Z M 3.390625 -7.015625 "/></g></g></g><g fill="#ffffff" fill-opacity="1"><g transform="translate(630.438357, 458.956773)"><g><path d="M 3.390625 -11.296875 L 3.390625 0 L 0.828125 0 L 0.828125 -11.296875 Z M 3.390625 -11.296875 "/></g></g></g><g fill="#ffffff" fill-opacity="1"><g transform="translate(635.339186, 458.956773)"><g><path d="M 0.109375 -9.03125 L 0.109375 -11.296875 L 8.046875 -11.296875 L 8.046875 -9.03125 L 5.359375 -9.03125 L 5.359375 0 L 2.796875 0 L 2.796875 -9.03125 Z M 0.109375 -9.03125 "/></g></g></g><g fill="#ffffff" fill-opacity="1"><g transform="translate(644.182012, 458.956773)"><g><path d="M 0.3125 -5.65625 C 0.3125 -7.289062 0.867188 -8.671875 1.984375 -9.796875 C 3.097656 -10.929688 4.441406 -11.5 6.015625 -11.5 C 7.585938 -11.5 8.925781 -10.929688 10.03125 -9.796875 C 11.132812 -8.671875 11.6875 -7.289062 11.6875 -5.65625 C 11.6875 -4 11.144531 -2.609375 10.0625 -1.484375 C 8.976562 -0.359375 7.628906 0.203125 6.015625 0.203125 C 4.359375 0.203125 2.992188 -0.351562 1.921875 -1.46875 C 0.847656 -2.582031 0.3125 -3.976562 0.3125 -5.65625 Z M 3.09375 -5.65625 C 3.09375 -5.0625 3.179688 -4.519531 3.359375 -4.03125 C 3.546875 -3.539062 3.867188 -3.125 4.328125 -2.78125 C 4.785156 -2.445312 5.347656 -2.28125 6.015625 -2.28125 C 6.972656 -2.28125 7.691406 -2.609375 8.171875 -3.265625 C 8.660156 -3.921875 8.90625 -4.71875 8.90625 -5.65625 C 8.90625 -6.570312 8.65625 -7.359375 8.15625 -8.015625 C 7.664062 -8.679688 6.953125 -9.015625 6.015625 -9.015625 C 5.078125 -9.015625 4.351562 -8.679688 3.84375 -8.015625 C 3.34375 -7.359375 3.09375 -6.570312 3.09375 -5.65625 Z M 3.09375 -5.65625 "/></g></g></g><g fill="#ffffff" fill-opacity="1"><g transform="translate(656.871015, 458.956773)"><g><path d="M 0.828125 -11.296875 L 4.859375 -11.296875 C 5.941406 -11.296875 6.828125 -11.003906 7.515625 -10.421875 C 8.203125 -9.835938 8.546875 -9.007812 8.546875 -7.9375 C 8.546875 -7.101562 8.335938 -6.40625 7.921875 -5.84375 C 7.503906 -5.289062 6.941406 -4.898438 6.234375 -4.671875 L 10.109375 0 L 6.84375 0 L 3.390625 -4.46875 L 3.390625 0 L 0.828125 0 Z M 3.390625 -6.28125 L 3.703125 -6.28125 C 3.929688 -6.28125 4.128906 -6.285156 4.296875 -6.296875 C 4.460938 -6.304688 4.648438 -6.335938 4.859375 -6.390625 C 5.066406 -6.441406 5.234375 -6.519531 5.359375 -6.625 C 5.492188 -6.726562 5.601562 -6.875 5.6875 -7.0625 C 5.78125 -7.25 5.828125 -7.476562 5.828125 -7.75 C 5.828125 -8.03125 5.78125 -8.265625 5.6875 -8.453125 C 5.601562 -8.648438 5.492188 -8.796875 5.359375 -8.890625 C 5.234375 -8.992188 5.066406 -9.070312 4.859375 -9.125 C 4.648438 -9.1875 4.460938 -9.21875 4.296875 -9.21875 C 4.128906 -9.226562 3.929688 -9.234375 3.703125 -9.234375 L 3.390625 -9.234375 Z M 3.390625 -6.28125 "/></g></g></g><g fill="#ffffff" fill-opacity="1"><g transform="translate(667.35632, 458.956773)"><g><path d="M 3.390625 -11.296875 L 3.390625 0 L 0.828125 0 L 0.828125 -11.296875 Z M 3.390625 -11.296875 "/></g></g></g><g fill="#ffffff" fill-opacity="1"><g transform="translate(672.257138, 458.956773)"><g><path d="M 3.390625 -7.015625 L 3.390625 0 L 0.828125 0 L 0.828125 -11.296875 L 3.390625 -11.296875 L 7.890625 -4.28125 L 7.90625 -4.28125 L 7.90625 -11.296875 L 10.484375 -11.296875 L 10.484375 0 L 7.90625 0 L 3.421875 -7.015625 Z M 3.390625 -7.015625 "/></g></g></g><g fill="#ffffff" fill-opacity="1"><g transform="translate(684.248073, 458.956773)"><g><path d="M 11.03125 -6.328125 L 11.03125 -3.875 C 10.738281 -2.53125 10.097656 -1.515625 9.109375 -0.828125 C 8.128906 -0.140625 7.03125 0.203125 5.8125 0.203125 C 4.289062 0.203125 2.992188 -0.363281 1.921875 -1.5 C 0.847656 -2.644531 0.3125 -4.023438 0.3125 -5.640625 C 0.3125 -7.285156 0.835938 -8.671875 1.890625 -9.796875 C 2.941406 -10.929688 4.25 -11.5 5.8125 -11.5 C 7.644531 -11.5 9.097656 -10.851562 10.171875 -9.5625 L 8.484375 -7.71875 C 7.878906 -8.6875 7.039062 -9.171875 5.96875 -9.171875 C 5.175781 -9.171875 4.5 -8.828125 3.9375 -8.140625 C 3.375 -7.453125 3.09375 -6.617188 3.09375 -5.640625 C 3.09375 -4.679688 3.375 -3.859375 3.9375 -3.171875 C 4.5 -2.492188 5.175781 -2.15625 5.96875 -2.15625 C 6.625 -2.15625 7.195312 -2.351562 7.6875 -2.75 C 8.175781 -3.15625 8.421875 -3.6875 8.421875 -4.34375 L 5.8125 -4.34375 L 5.8125 -6.328125 Z M 11.03125 -6.328125 "/></g></g></g><g fill="#ffffff" fill-opacity="1"><g transform="translate(696.28007, 458.956773)"><g/></g></g><g fill="#ffffff" fill-opacity="1"><g transform="translate(700.701838, 458.956773)"><g><path d="M 4.984375 -11.5 C 5.597656 -11.5 6.195312 -11.410156 6.78125 -11.234375 C 7.363281 -11.054688 7.796875 -10.878906 8.078125 -10.703125 L 8.484375 -10.4375 L 7.453125 -8.375 C 7.367188 -8.425781 7.253906 -8.492188 7.109375 -8.578125 C 6.960938 -8.671875 6.6875 -8.789062 6.28125 -8.9375 C 5.882812 -9.082031 5.507812 -9.15625 5.15625 -9.15625 C 4.726562 -9.15625 4.394531 -9.0625 4.15625 -8.875 C 3.925781 -8.695312 3.8125 -8.453125 3.8125 -8.140625 C 3.8125 -7.984375 3.863281 -7.835938 3.96875 -7.703125 C 4.082031 -7.578125 4.269531 -7.4375 4.53125 -7.28125 C 4.800781 -7.132812 5.035156 -7.015625 5.234375 -6.921875 C 5.441406 -6.828125 5.753906 -6.691406 6.171875 -6.515625 C 6.898438 -6.203125 7.519531 -5.78125 8.03125 -5.25 C 8.550781 -4.71875 8.8125 -4.113281 8.8125 -3.4375 C 8.8125 -2.789062 8.691406 -2.222656 8.453125 -1.734375 C 8.222656 -1.253906 7.90625 -0.875 7.5 -0.59375 C 7.101562 -0.320312 6.65625 -0.125 6.15625 0 C 5.664062 0.132812 5.132812 0.203125 4.5625 0.203125 C 4.0625 0.203125 3.570312 0.148438 3.09375 0.046875 C 2.625 -0.046875 2.226562 -0.164062 1.90625 -0.3125 C 1.59375 -0.46875 1.304688 -0.617188 1.046875 -0.765625 C 0.796875 -0.910156 0.613281 -1.035156 0.5 -1.140625 L 0.3125 -1.28125 L 1.59375 -3.453125 C 1.707031 -3.359375 1.859375 -3.238281 2.046875 -3.09375 C 2.242188 -2.957031 2.585938 -2.769531 3.078125 -2.53125 C 3.566406 -2.289062 3.992188 -2.171875 4.359375 -2.171875 C 5.453125 -2.171875 6 -2.539062 6 -3.28125 C 6 -3.4375 5.957031 -3.582031 5.875 -3.71875 C 5.800781 -3.851562 5.664062 -3.984375 5.46875 -4.109375 C 5.269531 -4.242188 5.09375 -4.347656 4.9375 -4.421875 C 4.789062 -4.503906 4.546875 -4.625 4.203125 -4.78125 C 3.867188 -4.9375 3.617188 -5.054688 3.453125 -5.140625 C 2.765625 -5.484375 2.234375 -5.90625 1.859375 -6.40625 C 1.484375 -6.914062 1.296875 -7.460938 1.296875 -8.046875 C 1.296875 -9.054688 1.671875 -9.882812 2.421875 -10.53125 C 3.171875 -11.175781 4.023438 -11.5 4.984375 -11.5 Z M 4.984375 -11.5 "/></g></g></g><g fill="#ffffff" fill-opacity="1"><g transform="translate(710.58491, 458.956773)"><g><path d="M -0.40625 -11.296875 L 2.6875 -11.296875 L 5.03125 -7.671875 L 7.390625 -11.296875 L 10.484375 -11.296875 L 6.328125 -5.0625 L 6.328125 0 L 3.75 0 L 3.75 -5.0625 Z M -0.40625 -11.296875 "/></g></g></g><g fill="#ffffff" fill-opacity="1"><g transform="translate(721.343981, 458.956773)"><g><path d="M 4.984375 -11.5 C 5.597656 -11.5 6.195312 -11.410156 6.78125 -11.234375 C 7.363281 -11.054688 7.796875 -10.878906 8.078125 -10.703125 L 8.484375 -10.4375 L 7.453125 -8.375 C 7.367188 -8.425781 7.253906 -8.492188 7.109375 -8.578125 C 6.960938 -8.671875 6.6875 -8.789062 6.28125 -8.9375 C 5.882812 -9.082031 5.507812 -9.15625 5.15625 -9.15625 C 4.726562 -9.15625 4.394531 -9.0625 4.15625 -8.875 C 3.925781 -8.695312 3.8125 -8.453125 3.8125 -8.140625 C 3.8125 -7.984375 3.863281 -7.835938 3.96875 -7.703125 C 4.082031 -7.578125 4.269531 -7.4375 4.53125 -7.28125 C 4.800781 -7.132812 5.035156 -7.015625 5.234375 -6.921875 C 5.441406 -6.828125 5.753906 -6.691406 6.171875 -6.515625 C 6.898438 -6.203125 7.519531 -5.78125 8.03125 -5.25 C 8.550781 -4.71875 8.8125 -4.113281 8.8125 -3.4375 C 8.8125 -2.789062 8.691406 -2.222656 8.453125 -1.734375 C 8.222656 -1.253906 7.90625 -0.875 7.5 -0.59375 C 7.101562 -0.320312 6.65625 -0.125 6.15625 0 C 5.664062 0.132812 5.132812 0.203125 4.5625 0.203125 C 4.0625 0.203125 3.570312 0.148438 3.09375 0.046875 C 2.625 -0.046875 2.226562 -0.164062 1.90625 -0.3125 C 1.59375 -0.46875 1.304688 -0.617188 1.046875 -0.765625 C 0.796875 -0.910156 0.613281 -1.035156 0.5 -1.140625 L 0.3125 -1.28125 L 1.59375 -3.453125 C 1.707031 -3.359375 1.859375 -3.238281 2.046875 -3.09375 C 2.242188 -2.957031 2.585938 -2.769531 3.078125 -2.53125 C 3.566406 -2.289062 3.992188 -2.171875 4.359375 -2.171875 C 5.453125 -2.171875 6 -2.539062 6 -3.28125 C 6 -3.4375 5.957031 -3.582031 5.875 -3.71875 C 5.800781 -3.851562 5.664062 -3.984375 5.46875 -4.109375 C 5.269531 -4.242188 5.09375 -4.347656 4.9375 -4.421875 C 4.789062 -4.503906 4.546875 -4.625 4.203125 -4.78125 C 3.867188 -4.9375 3.617188 -5.054688 3.453125 -5.140625 C 2.765625 -5.484375 2.234375 -5.90625 1.859375 -6.40625 C 1.484375 -6.914062 1.296875 -7.460938 1.296875 -8.046875 C 1.296875 -9.054688 1.671875 -9.882812 2.421875 -10.53125 C 3.171875 -11.175781 4.023438 -11.5 4.984375 -11.5 Z M 4.984375 -11.5 "/></g></g></g><g fill="#ffffff" fill-opacity="1"><g transform="translate(731.227052, 458.956773)"><g><path d="M 0.109375 -9.03125 L 0.109375 -11.296875 L 8.046875 -11.296875 L 8.046875 -9.03125 L 5.359375 -9.03125 L 5.359375 0 L 2.796875 0 L 2.796875 -9.03125 Z M 0.109375 -9.03125 "/></g></g></g><g fill="#ffffff" fill-opacity="1"><g transform="translate(740.069878, 458.956773)"><g><path d="M 7.28125 -11.296875 L 7.28125 -9.03125 L 3.390625 -9.03125 L 3.390625 -6.78125 L 7.125 -6.78125 L 7.125 -4.53125 L 3.390625 -4.53125 L 3.390625 -2.265625 L 7.28125 -2.265625 L 7.28125 0 L 0.828125 0 L 0.828125 -11.296875 Z M 7.28125 -11.296875 "/></g></g></g><g fill="#ffffff" fill-opacity="1"><g transform="translate(748.693688, 458.956773)"><g><path d="M 10.15625 0 L 9.625 -6.6875 L 9.546875 -6.6875 L 7.234375 -0.0625 L 5.703125 -0.0625 L 3.390625 -6.6875 L 3.328125 -6.6875 L 2.796875 0 L 0.21875 0 L 1.234375 -11.296875 L 3.96875 -11.296875 L 6.46875 -4.78125 L 8.984375 -11.296875 L 11.71875 -11.296875 L 12.734375 0 Z M 10.15625 0 "/></g></g></g><g fill="#ffffff" fill-opacity="1"><g transform="translate(105.74817, 425.923004)"><g><path d="M 130.46875 -74.78125 L 130.46875 -45.8125 C 127.019531 -29.945312 119.46875 -17.941406 107.8125 -9.796875 C 96.15625 -1.648438 83.148438 2.421875 68.796875 2.421875 C 50.773438 2.421875 35.421875 -4.320312 22.734375 -17.8125 C 10.054688 -31.300781 3.71875 -47.59375 3.71875 -66.6875 C 3.71875 -86.113281 9.921875 -102.515625 22.328125 -115.890625 C 34.742188 -129.273438 50.234375 -135.96875 68.796875 -135.96875 C 90.484375 -135.96875 107.640625 -128.363281 120.265625 -113.15625 L 100.359375 -91.296875 C 93.234375 -102.734375 83.304688 -108.453125 70.578125 -108.453125 C 61.191406 -108.453125 53.175781 -104.378906 46.53125 -96.234375 C 39.894531 -88.085938 36.578125 -78.238281 36.578125 -66.6875 C 36.578125 -55.363281 39.894531 -45.679688 46.53125 -37.640625 C 53.175781 -29.597656 61.191406 -25.578125 70.578125 -25.578125 C 78.347656 -25.578125 85.117188 -27.921875 90.890625 -32.609375 C 96.660156 -37.304688 99.546875 -43.539062 99.546875 -51.3125 L 68.796875 -51.3125 L 68.796875 -74.78125 Z M 130.46875 -74.78125 "/></g></g></g><g fill="#ffffff" fill-opacity="1"><g transform="translate(231.848097, 425.923004)"><g><path d="M 9.71875 0 L 9.71875 -139.21875 L 38.359375 -139.21875 L 38.359375 0 Z M 9.71875 0 "/></g></g></g><g fill="#ffffff" fill-opacity="1"><g transform="translate(271.831006, 425.923004)"><g><path d="M 36.75 -83.046875 L 36.75 -43.546875 C 36.75 -35.335938 37.988281 -29.503906 40.46875 -26.046875 C 42.945312 -22.597656 47.15625 -20.875 53.09375 -20.875 C 59.03125 -20.875 63.238281 -22.597656 65.71875 -26.046875 C 68.195312 -29.503906 69.4375 -35.335938 69.4375 -43.546875 L 69.4375 -83.046875 L 98.09375 -83.046875 L 98.09375 -36.578125 C 98.09375 -22.765625 94.503906 -12.8125 87.328125 -6.71875 C 80.148438 -0.625 68.738281 2.421875 53.09375 2.421875 C 37.445312 2.421875 26.035156 -0.625 18.859375 -6.71875 C 11.679688 -12.8125 8.09375 -22.765625 8.09375 -36.578125 L 8.09375 -83.046875 Z M 36.75 -83.046875 "/></g></g></g><g fill="#ffffff" fill-opacity="1"><g transform="translate(369.926717, 425.923004)"><g><path d="M 53.90625 -62 C 48.507812 -62 43.867188 -60 39.984375 -56 C 36.097656 -52.007812 34.15625 -47.210938 34.15625 -41.609375 C 34.15625 -35.878906 36.097656 -31.019531 39.984375 -27.03125 C 43.867188 -23.039062 48.507812 -21.046875 53.90625 -21.046875 C 56.5 -21.046875 58.953125 -21.367188 61.265625 -22.015625 C 63.585938 -22.660156 65.289062 -23.304688 66.375 -23.953125 L 67.828125 -24.921875 L 77.53125 -5.015625 C 76.78125 -4.472656 75.726562 -3.796875 74.375 -2.984375 C 73.03125 -2.179688 69.957031 -1.082031 65.15625 0.3125 C 60.351562 1.71875 55.203125 2.421875 49.703125 2.421875 C 37.503906 2.421875 26.789062 -1.863281 17.5625 -10.4375 C 8.332031 -19.019531 3.71875 -29.300781 3.71875 -41.28125 C 3.71875 -53.363281 8.332031 -63.75 17.5625 -72.4375 C 26.789062 -81.125 37.503906 -85.46875 49.703125 -85.46875 C 55.203125 -85.46875 60.269531 -84.816406 64.90625 -83.515625 C 69.550781 -82.222656 72.84375 -80.929688 74.78125 -79.640625 L 77.53125 -77.703125 L 67.828125 -58.109375 C 64.265625 -60.703125 59.625 -62 53.90625 -62 Z M 53.90625 -62 "/></g></g></g><g fill="#ffffff" fill-opacity="1"><g transform="translate(441.313198, 425.923004)"><g><path d="M 17.5625 -9.875 C 8.332031 -18.070312 3.71875 -28.59375 3.71875 -41.4375 C 3.71875 -54.28125 8.519531 -64.828125 18.125 -73.078125 C 27.726562 -81.335938 39.601562 -85.46875 53.75 -85.46875 C 67.664062 -85.46875 79.398438 -81.3125 88.953125 -73 C 98.503906 -64.695312 103.28125 -54.175781 103.28125 -41.4375 C 103.28125 -28.707031 98.609375 -18.210938 89.265625 -9.953125 C 79.929688 -1.703125 68.09375 2.421875 53.75 2.421875 C 38.851562 2.421875 26.789062 -1.675781 17.5625 -9.875 Z M 39.734375 -55.515625 C 36.015625 -51.847656 34.15625 -47.15625 34.15625 -41.4375 C 34.15625 -35.71875 35.9375 -31.050781 39.5 -27.4375 C 43.0625 -23.820312 47.753906 -22.015625 53.578125 -22.015625 C 59.191406 -22.015625 63.804688 -23.847656 67.421875 -27.515625 C 71.035156 -31.179688 72.84375 -35.820312 72.84375 -41.4375 C 72.84375 -47.15625 70.976562 -51.847656 67.25 -55.515625 C 63.53125 -59.191406 58.972656 -61.03125 53.578125 -61.03125 C 48.078125 -61.03125 43.460938 -59.191406 39.734375 -55.515625 Z M 39.734375 -55.515625 "/></g></g></g><g fill="#ffffff" fill-opacity="1"><g transform="translate(540.218277, 425.923004)"><g><path d="M 130.46875 -74.78125 L 130.46875 -45.8125 C 127.019531 -29.945312 119.46875 -17.941406 107.8125 -9.796875 C 96.15625 -1.648438 83.148438 2.421875 68.796875 2.421875 C 50.773438 2.421875 35.421875 -4.320312 22.734375 -17.8125 C 10.054688 -31.300781 3.71875 -47.59375 3.71875 -66.6875 C 3.71875 -86.113281 9.921875 -102.515625 22.328125 -115.890625 C 34.742188 -129.273438 50.234375 -135.96875 68.796875 -135.96875 C 90.484375 -135.96875 107.640625 -128.363281 120.265625 -113.15625 L 100.359375 -91.296875 C 93.234375 -102.734375 83.304688 -108.453125 70.578125 -108.453125 C 61.191406 -108.453125 53.175781 -104.378906 46.53125 -96.234375 C 39.894531 -88.085938 36.578125 -78.238281 36.578125 -66.6875 C 36.578125 -55.363281 39.894531 -45.679688 46.53125 -37.640625 C 53.175781 -29.597656 61.191406 -25.578125 70.578125 -25.578125 C 78.347656 -25.578125 85.117188 -27.921875 90.890625 -32.609375 C 96.660156 -37.304688 99.546875 -43.539062 99.546875 -51.3125 L 68.796875 -51.3125 L 68.796875 -74.78125 Z M 130.46875 -74.78125 "/></g></g></g><g fill="#ffffff" fill-opacity="1"><g transform="translate(666.318204, 425.923004)"><g><path d="M 36.75 -83.046875 L 36.75 -43.546875 C 36.75 -35.335938 37.988281 -29.503906 40.46875 -26.046875 C 42.945312 -22.597656 47.15625 -20.875 53.09375 -20.875 C 59.03125 -20.875 63.238281 -22.597656 65.71875 -26.046875 C 68.195312 -29.503906 69.4375 -35.335938 69.4375 -43.546875 L 69.4375 -83.046875 L 98.09375 -83.046875 L 98.09375 -36.578125 C 98.09375 -22.765625 94.503906 -12.8125 87.328125 -6.71875 C 80.148438 -0.625 68.738281 2.421875 53.09375 2.421875 C 37.445312 2.421875 26.035156 -0.625 18.859375 -6.71875 C 11.679688 -12.8125 8.09375 -22.765625 8.09375 -36.578125 L 8.09375 -83.046875 Z M 36.75 -83.046875 "/></g></g></g><g fill="#ffffff" fill-opacity="1"><g transform="translate(764.413897, 425.923004)"><g><path d="M 15.375 -10.28125 C 7.601562 -18.75 3.71875 -29.132812 3.71875 -41.4375 C 3.71875 -53.738281 7.601562 -64.148438 15.375 -72.671875 C 23.144531 -81.203125 33.019531 -85.46875 45 -85.46875 C 56.007812 -85.46875 65.078125 -82.015625 72.203125 -75.109375 L 72.203125 -83.046875 L 100.84375 -83.046875 L 100.84375 0 L 72.515625 0 L 72.515625 -9.390625 L 72.203125 -9.390625 C 65.078125 -1.515625 56.007812 2.421875 45 2.421875 C 33.019531 2.421875 23.144531 -1.8125 15.375 -10.28125 Z M 39.734375 -55.515625 C 36.015625 -51.847656 34.15625 -47.15625 34.15625 -41.4375 C 34.15625 -35.71875 35.9375 -31.050781 39.5 -27.4375 C 43.0625 -23.820312 47.753906 -22.015625 53.578125 -22.015625 C 59.191406 -22.015625 63.804688 -23.847656 67.421875 -27.515625 C 71.035156 -31.179688 72.84375 -35.820312 72.84375 -41.4375 C 72.84375 -47.15625 70.976562 -51.847656 67.25 -55.515625 C 63.53125 -59.191406 58.972656 -61.03125 53.578125 -61.03125 C 48.078125 -61.03125 43.460938 -59.191406 39.734375 -55.515625 Z M 39.734375 -55.515625 "/></g></g></g><g fill="#ffffff" fill-opacity="1"><g transform="translate(866.880187, 425.923004)"><g><path d="M 9.71875 0 L 9.71875 -83.046875 L 38.359375 -83.046875 L 38.359375 -71.0625 L 38.6875 -71.0625 C 38.90625 -71.488281 39.253906 -72.023438 39.734375 -72.671875 C 40.222656 -73.328125 41.273438 -74.460938 42.890625 -76.078125 C 44.515625 -77.703125 46.242188 -79.160156 48.078125 -80.453125 C 49.910156 -81.742188 52.28125 -82.898438 55.1875 -83.921875 C 58.101562 -84.953125 61.078125 -85.46875 64.109375 -85.46875 C 67.234375 -85.46875 70.304688 -85.035156 73.328125 -84.171875 C 76.347656 -83.304688 78.5625 -82.441406 79.96875 -81.578125 L 82.234375 -80.296875 L 70.25 -56.015625 C 66.6875 -59.035156 61.722656 -60.546875 55.359375 -60.546875 C 51.910156 -60.546875 48.941406 -59.789062 46.453125 -58.28125 C 43.972656 -56.769531 42.21875 -54.929688 41.1875 -52.765625 C 40.164062 -50.609375 39.4375 -48.773438 39 -47.265625 C 38.570312 -45.753906 38.359375 -44.566406 38.359375 -43.703125 L 38.359375 0 Z M 9.71875 0 "/></g></g></g><g fill="#ffffff" fill-opacity="1"><g transform="translate(939.399764, 425.923004)"><g><path d="M 15.375 -10.28125 C 7.601562 -18.75 3.71875 -29.132812 3.71875 -41.4375 C 3.71875 -53.738281 7.601562 -64.148438 15.375 -72.671875 C 23.144531 -81.203125 33.019531 -85.46875 45 -85.46875 C 56.007812 -85.46875 65.078125 -82.015625 72.203125 -75.109375 L 72.203125 -139.21875 L 100.84375 -139.21875 L 100.84375 0 L 72.515625 0 L 72.515625 -9.390625 L 72.203125 -9.390625 C 65.078125 -1.515625 56.007812 2.421875 45 2.421875 C 33.019531 2.421875 23.144531 -1.8125 15.375 -10.28125 Z M 39.734375 -55.515625 C 36.015625 -51.847656 34.15625 -47.15625 34.15625 -41.4375 C 34.15625 -35.71875 35.9375 -31.050781 39.5 -27.4375 C 43.0625 -23.820312 47.753906 -22.015625 53.578125 -22.015625 C 59.191406 -22.015625 63.804688 -23.847656 67.421875 -27.515625 C 71.035156 -31.179688 72.84375 -35.820312 72.84375 -41.4375 C 72.84375 -47.15625 70.976562 -51.847656 67.25 -55.515625 C 63.53125 -59.191406 58.972656 -61.03125 53.578125 -61.03125 C 48.078125 -61.03125 43.460938 -59.191406 39.734375 -55.515625 Z M 39.734375 -55.515625 "/></g></g></g><g fill="#ffffff" fill-opacity="1"><g transform="translate(1041.866053, 425.923004)"><g><path d="M 12.46875 -129.328125 C 15.8125 -132.679688 19.800781 -134.359375 24.4375 -134.359375 C 29.082031 -134.359375 33.078125 -132.679688 36.421875 -129.328125 C 39.765625 -125.984375 41.4375 -121.992188 41.4375 -117.359375 C 41.4375 -112.722656 39.765625 -108.726562 36.421875 -105.375 C 33.078125 -102.03125 29.082031 -100.359375 24.4375 -100.359375 C 19.800781 -100.359375 15.8125 -102.03125 12.46875 -105.375 C 9.125 -108.726562 7.453125 -112.722656 7.453125 -117.359375 C 7.453125 -121.992188 9.125 -125.984375 12.46875 -129.328125 Z M 9.71875 -83.046875 L 9.71875 0 L 38.359375 0 L 38.359375 -83.046875 Z M 9.71875 -83.046875 "/></g></g></g><g fill="#ffffff" fill-opacity="1"><g transform="translate(1082.658328, 425.923004)"><g><path d="M 15.375 -10.28125 C 7.601562 -18.75 3.71875 -29.132812 3.71875 -41.4375 C 3.71875 -53.738281 7.601562 -64.148438 15.375 -72.671875 C 23.144531 -81.203125 33.019531 -85.46875 45 -85.46875 C 56.007812 -85.46875 65.078125 -82.015625 72.203125 -75.109375 L 72.203125 -83.046875 L 100.84375 -83.046875 L 100.84375 0 L 72.515625 0 L 72.515625 -9.390625 L 72.203125 -9.390625 C 65.078125 -1.515625 56.007812 2.421875 45 2.421875 C 33.019531 2.421875 23.144531 -1.8125 15.375 -10.28125 Z M 39.734375 -55.515625 C 36.015625 -51.847656 34.15625 -47.15625 34.15625 -41.4375 C 34.15625 -35.71875 35.9375 -31.050781 39.5 -27.4375 C 43.0625 -23.820312 47.753906 -22.015625 53.578125 -22.015625 C 59.191406 -22.015625 63.804688 -23.847656 67.421875 -27.515625 C 71.035156 -31.179688 72.84375 -35.820312 72.84375 -41.4375 C 72.84375 -47.15625 70.976562 -51.847656 67.25 -55.515625 C 63.53125 -59.191406 58.972656 -61.03125 53.578125 -61.03125 C 48.078125 -61.03125 43.460938 -59.191406 39.734375 -55.515625 Z M 39.734375 -55.515625 "/></g></g></g><g fill="#ffffff" fill-opacity="1"><g transform="translate(1185.124617, 425.923004)"><g><path d="M 9.71875 0 L 9.71875 -83.046875 L 38.359375 -83.046875 L 38.359375 -74.296875 L 38.6875 -74.296875 C 46.132812 -81.742188 54.066406 -85.46875 62.484375 -85.46875 C 66.585938 -85.46875 70.660156 -84.925781 74.703125 -83.84375 C 78.753906 -82.769531 82.640625 -81.097656 86.359375 -78.828125 C 90.078125 -76.566406 93.097656 -73.359375 95.421875 -69.203125 C 97.742188 -65.046875 98.90625 -60.21875 98.90625 -54.71875 L 98.90625 0 L 70.25 0 L 70.25 -46.9375 C 70.25 -51.257812 68.875 -55.035156 66.125 -58.265625 C 63.375 -61.503906 59.785156 -63.125 55.359375 -63.125 C 51.046875 -63.125 47.132812 -61.453125 43.625 -58.109375 C 40.113281 -54.765625 38.359375 -51.039062 38.359375 -46.9375 L 38.359375 0 Z M 9.71875 0 "/></g></g></g><g fill="#ffffff" fill-opacity="1"><g transform="translate(105.74817, 512.860114)"><g><path d="M 2 -27.546875 L 10.546875 -27.546875 C 13.128906 -27.546875 15.1875 -26.992188 16.71875 -25.890625 C 18.257812 -24.785156 19.03125 -23 19.03125 -20.53125 C 19.03125 -17.769531 17.882812 -15.800781 15.59375 -14.625 C 19.507812 -13.9375 21.46875 -11.625 21.46875 -7.6875 C 21.46875 -5.363281 20.664062 -3.5 19.0625 -2.09375 C 17.457031 -0.695312 15.253906 0 12.453125 0 L 2 0 Z M 8.28125 -16.765625 L 8.78125 -16.765625 C 10.1875 -16.765625 11.234375 -17.007812 11.921875 -17.5 C 12.609375 -17.988281 12.953125 -18.789062 12.953125 -19.90625 C 12.953125 -21.769531 11.5625 -22.703125 8.78125 -22.703125 L 8.28125 -22.703125 Z M 8.28125 -4.84375 L 10.25 -4.84375 C 13.320312 -4.84375 14.859375 -5.863281 14.859375 -7.90625 C 14.859375 -9.132812 14.472656 -10.015625 13.703125 -10.546875 C 12.941406 -11.085938 11.789062 -11.359375 10.25 -11.359375 L 8.28125 -11.359375 Z M 8.28125 -4.84375 "/></g></g></g><g fill="#ffffff" fill-opacity="1"><g transform="translate(129.643877, 512.860114)"><g><path d="M 16 -27.546875 L 27.109375 0 L 20.375 0 L 18.328125 -5.515625 L 7.84375 -5.515625 L 5.8125 0 L -0.9375 0 L 10.1875 -27.546875 Z M 16.1875 -11.015625 L 13.125 -19.03125 L 13.0625 -19.03125 L 9.984375 -11.015625 Z M 16.1875 -11.015625 "/></g></g></g><g fill="#ffffff" fill-opacity="1"><g transform="translate(157.477431, 512.860114)"><g><path d="M 2 -27.546875 L 10.546875 -27.546875 C 13.128906 -27.546875 15.1875 -26.992188 16.71875 -25.890625 C 18.257812 -24.785156 19.03125 -23 19.03125 -20.53125 C 19.03125 -17.769531 17.882812 -15.800781 15.59375 -14.625 C 19.507812 -13.9375 21.46875 -11.625 21.46875 -7.6875 C 21.46875 -5.363281 20.664062 -3.5 19.0625 -2.09375 C 17.457031 -0.695312 15.253906 0 12.453125 0 L 2 0 Z M 8.28125 -16.765625 L 8.78125 -16.765625 C 10.1875 -16.765625 11.234375 -17.007812 11.921875 -17.5 C 12.609375 -17.988281 12.953125 -18.789062 12.953125 -19.90625 C 12.953125 -21.769531 11.5625 -22.703125 8.78125 -22.703125 L 8.28125 -22.703125 Z M 8.28125 -4.84375 L 10.25 -4.84375 C 13.320312 -4.84375 14.859375 -5.863281 14.859375 -7.90625 C 14.859375 -9.132812 14.472656 -10.015625 13.703125 -10.546875 C 12.941406 -11.085938 11.789062 -11.359375 10.25 -11.359375 L 8.28125 -11.359375 Z M 8.28125 -4.84375 "/></g></g></g><g fill="#ffffff" fill-opacity="1"><g transform="translate(181.37314, 512.860114)"><g><path d="M -1 -27.546875 L 6.546875 -27.546875 L 12.28125 -18.734375 L 18.03125 -27.546875 L 25.578125 -27.546875 L 15.421875 -12.359375 L 15.421875 0 L 9.15625 0 L 9.15625 -12.359375 Z M -1 -27.546875 "/></g></g></g><g fill="#ffffff" fill-opacity="1"><g transform="translate(207.604846, 512.860114)"><g/></g></g><g fill="#ffffff" fill-opacity="1"><g transform="translate(218.385556, 512.860114)"><g><path d="M 26.90625 -15.421875 L 26.90625 -9.453125 C 26.195312 -6.179688 24.640625 -3.703125 22.234375 -2.015625 C 19.828125 -0.335938 17.144531 0.5 14.1875 0.5 C 10.46875 0.5 7.300781 -0.890625 4.6875 -3.671875 C 2.070312 -6.453125 0.765625 -9.8125 0.765625 -13.75 C 0.765625 -17.757812 2.046875 -21.144531 4.609375 -23.90625 C 7.171875 -26.664062 10.363281 -28.046875 14.1875 -28.046875 C 18.664062 -28.046875 22.207031 -26.476562 24.8125 -23.34375 L 20.703125 -18.828125 C 19.234375 -21.191406 17.1875 -22.375 14.5625 -22.375 C 12.625 -22.375 10.96875 -21.53125 9.59375 -19.84375 C 8.226562 -18.164062 7.546875 -16.132812 7.546875 -13.75 C 7.546875 -11.414062 8.226562 -9.421875 9.59375 -7.765625 C 10.96875 -6.109375 12.625 -5.28125 14.5625 -5.28125 C 16.164062 -5.28125 17.5625 -5.765625 18.75 -6.734375 C 19.9375 -7.703125 20.53125 -8.984375 20.53125 -10.578125 L 14.1875 -10.578125 L 14.1875 -15.421875 Z M 26.90625 -15.421875 "/></g></g></g><g fill="#ffffff" fill-opacity="1"><g transform="translate(247.720808, 512.860114)"><g><path d="M 8.28125 -27.546875 L 8.28125 -5.515625 L 17.765625 -5.515625 L 17.765625 0 L 2 0 L 2 -27.546875 Z M 8.28125 -27.546875 "/></g></g></g><g fill="#ffffff" fill-opacity="1"><g transform="translate(268.245996, 512.860114)"><g><path d="M 23.171875 -27.546875 L 23.171875 -9.78125 C 23.171875 -6.394531 22.257812 -3.832031 20.4375 -2.09375 C 18.613281 -0.363281 15.941406 0.5 12.421875 0.5 C 8.898438 0.5 6.226562 -0.363281 4.40625 -2.09375 C 2.582031 -3.832031 1.671875 -6.394531 1.671875 -9.78125 L 1.671875 -27.546875 L 7.953125 -27.546875 L 7.953125 -11.625 C 7.953125 -9.394531 8.300781 -7.84375 9 -6.96875 C 9.695312 -6.101562 10.835938 -5.671875 12.421875 -5.671875 C 14.003906 -5.671875 15.144531 -6.101562 15.84375 -6.96875 C 16.539062 -7.84375 16.890625 -9.394531 16.890625 -11.625 L 16.890625 -27.546875 Z M 23.171875 -27.546875 "/></g></g></g><g fill="#ffffff" fill-opacity="1"><g transform="translate(294.744666, 512.860114)"><g><path d="M 16.65625 -5.671875 C 17.613281 -5.671875 18.539062 -5.816406 19.4375 -6.109375 C 20.34375 -6.398438 21.007812 -6.675781 21.4375 -6.9375 L 22.078125 -7.375 L 24.75 -2.03125 C 24.65625 -1.96875 24.53125 -1.878906 24.375 -1.765625 C 24.21875 -1.660156 23.851562 -1.457031 23.28125 -1.15625 C 22.71875 -0.851562 22.113281 -0.585938 21.46875 -0.359375 C 20.820312 -0.140625 19.972656 0.0546875 18.921875 0.234375 C 17.878906 0.410156 16.800781 0.5 15.6875 0.5 C 13.132812 0.5 10.707031 -0.125 8.40625 -1.375 C 6.113281 -2.632812 4.265625 -4.367188 2.859375 -6.578125 C 1.460938 -8.785156 0.765625 -11.164062 0.765625 -13.71875 C 0.765625 -15.65625 1.175781 -17.515625 2 -19.296875 C 2.820312 -21.078125 3.914062 -22.601562 5.28125 -23.875 C 6.65625 -25.144531 8.253906 -26.15625 10.078125 -26.90625 C 11.910156 -27.664062 13.78125 -28.046875 15.6875 -28.046875 C 17.46875 -28.046875 19.109375 -27.832031 20.609375 -27.40625 C 22.117188 -26.988281 23.1875 -26.566406 23.8125 -26.140625 L 24.75 -25.515625 L 22.078125 -20.171875 C 21.921875 -20.304688 21.6875 -20.46875 21.375 -20.65625 C 21.0625 -20.84375 20.4375 -21.09375 19.5 -21.40625 C 18.5625 -21.71875 17.613281 -21.875 16.65625 -21.875 C 15.144531 -21.875 13.785156 -21.628906 12.578125 -21.140625 C 11.378906 -20.648438 10.429688 -20.003906 9.734375 -19.203125 C 9.035156 -18.398438 8.5 -17.535156 8.125 -16.609375 C 7.757812 -15.679688 7.578125 -14.742188 7.578125 -13.796875 C 7.578125 -11.703125 8.359375 -9.820312 9.921875 -8.15625 C 11.492188 -6.5 13.738281 -5.671875 16.65625 -5.671875 Z M 16.65625 -5.671875 "/></g></g></g><g fill="#ffffff" fill-opacity="1"><g transform="translate(321.543701, 512.860114)"><g><path d="M 0.765625 -13.796875 C 0.765625 -17.773438 2.125 -21.144531 4.84375 -23.90625 C 7.5625 -26.664062 10.832031 -28.046875 14.65625 -28.046875 C 18.507812 -28.046875 21.78125 -26.671875 24.46875 -23.921875 C 27.164062 -21.171875 28.515625 -17.796875 28.515625 -13.796875 C 28.515625 -9.765625 27.1875 -6.375 24.53125 -3.625 C 21.882812 -0.875 18.59375 0.5 14.65625 0.5 C 10.625 0.5 7.300781 -0.863281 4.6875 -3.59375 C 2.070312 -6.320312 0.765625 -9.722656 0.765625 -13.796875 Z M 7.546875 -13.796875 C 7.546875 -12.347656 7.765625 -11.023438 8.203125 -9.828125 C 8.648438 -8.640625 9.429688 -7.632812 10.546875 -6.8125 C 11.660156 -5.988281 13.03125 -5.578125 14.65625 -5.578125 C 17 -5.578125 18.765625 -6.378906 19.953125 -7.984375 C 21.140625 -9.585938 21.734375 -11.523438 21.734375 -13.796875 C 21.734375 -16.035156 21.125 -17.960938 19.90625 -19.578125 C 18.695312 -21.191406 16.945312 -22 14.65625 -22 C 12.382812 -22 10.628906 -21.191406 9.390625 -19.578125 C 8.160156 -17.960938 7.546875 -16.035156 7.546875 -13.796875 Z M 7.546875 -13.796875 "/></g></g></g><g fill="#ffffff" fill-opacity="1"><g transform="translate(352.480778, 512.860114)"><g><path d="M 12.15625 -28.046875 C 13.644531 -28.046875 15.101562 -27.828125 16.53125 -27.390625 C 17.957031 -26.960938 19.015625 -26.535156 19.703125 -26.109375 L 20.703125 -25.4375 L 18.171875 -20.4375 C 17.960938 -20.570312 17.679688 -20.742188 17.328125 -20.953125 C 16.972656 -21.160156 16.304688 -21.441406 15.328125 -21.796875 C 14.347656 -22.160156 13.4375 -22.34375 12.59375 -22.34375 C 11.539062 -22.34375 10.726562 -22.117188 10.15625 -21.671875 C 9.59375 -21.222656 9.3125 -20.625 9.3125 -19.875 C 9.3125 -19.488281 9.445312 -19.132812 9.71875 -18.8125 C 9.988281 -18.488281 10.441406 -18.144531 11.078125 -17.78125 C 11.722656 -17.414062 12.289062 -17.117188 12.78125 -16.890625 C 13.269531 -16.671875 14.03125 -16.335938 15.0625 -15.890625 C 16.84375 -15.140625 18.359375 -14.113281 19.609375 -12.8125 C 20.867188 -11.507812 21.5 -10.03125 21.5 -8.375 C 21.5 -6.800781 21.210938 -5.421875 20.640625 -4.234375 C 20.078125 -3.054688 19.300781 -2.132812 18.3125 -1.46875 C 17.320312 -0.800781 16.222656 -0.304688 15.015625 0.015625 C 13.816406 0.335938 12.519531 0.5 11.125 0.5 C 9.914062 0.5 8.734375 0.375 7.578125 0.125 C 6.421875 -0.113281 5.453125 -0.414062 4.671875 -0.78125 C 3.890625 -1.144531 3.1875 -1.503906 2.5625 -1.859375 C 1.945312 -2.222656 1.492188 -2.523438 1.203125 -2.765625 L 0.765625 -3.140625 L 3.90625 -8.421875 C 4.175781 -8.191406 4.539062 -7.90625 5 -7.5625 C 5.46875 -7.21875 6.296875 -6.753906 7.484375 -6.171875 C 8.679688 -5.597656 9.738281 -5.3125 10.65625 -5.3125 C 13.300781 -5.3125 14.625 -6.210938 14.625 -8.015625 C 14.625 -8.390625 14.53125 -8.738281 14.34375 -9.0625 C 14.15625 -9.382812 13.820312 -9.707031 13.34375 -10.03125 C 12.863281 -10.351562 12.4375 -10.609375 12.0625 -10.796875 C 11.695312 -10.984375 11.097656 -11.269531 10.265625 -11.65625 C 9.429688 -12.050781 8.816406 -12.351562 8.421875 -12.5625 C 6.742188 -13.382812 5.445312 -14.410156 4.53125 -15.640625 C 3.625 -16.878906 3.171875 -18.210938 3.171875 -19.640625 C 3.171875 -22.109375 4.082031 -24.125 5.90625 -25.6875 C 7.726562 -27.257812 9.8125 -28.046875 12.15625 -28.046875 Z M 12.15625 -28.046875 "/></g></g></g><g fill="#ffffff" fill-opacity="1"><g transform="translate(376.576721, 512.860114)"><g><path d="M 17.765625 -27.546875 L 17.765625 -22.03125 L 8.28125 -22.03125 L 8.28125 -16.5625 L 17.359375 -16.5625 L 17.359375 -11.046875 L 8.28125 -11.046875 L 8.28125 -5.515625 L 17.765625 -5.515625 L 17.765625 0 L 2 0 L 2 -27.546875 Z M 17.765625 -27.546875 "/></g></g></g><g fill="#ffffff" fill-opacity="1"><g transform="translate(397.602482, 512.860114)"><g/></g></g><g fill="#ffffff" fill-opacity="1"><g transform="translate(408.383207, 512.860114)"><g><path d="M 24.78125 0 L 23.46875 -16.328125 L 23.3125 -16.328125 L 17.65625 -0.171875 L 13.921875 -0.171875 L 8.28125 -16.328125 L 8.109375 -16.328125 L 6.8125 0 L 0.53125 0 L 3 -27.546875 L 9.6875 -27.546875 L 15.796875 -11.65625 L 21.90625 -27.546875 L 28.578125 -27.546875 L 31.046875 0 Z M 24.78125 0 "/></g></g></g><g fill="#ffffff" fill-opacity="1"><g transform="translate(441.622956, 512.860114)"><g><path d="M 0.765625 -13.796875 C 0.765625 -17.773438 2.125 -21.144531 4.84375 -23.90625 C 7.5625 -26.664062 10.832031 -28.046875 14.65625 -28.046875 C 18.507812 -28.046875 21.78125 -26.671875 24.46875 -23.921875 C 27.164062 -21.171875 28.515625 -17.796875 28.515625 -13.796875 C 28.515625 -9.765625 27.1875 -6.375 24.53125 -3.625 C 21.882812 -0.875 18.59375 0.5 14.65625 0.5 C 10.625 0.5 7.300781 -0.863281 4.6875 -3.59375 C 2.070312 -6.320312 0.765625 -9.722656 0.765625 -13.796875 Z M 7.546875 -13.796875 C 7.546875 -12.347656 7.765625 -11.023438 8.203125 -9.828125 C 8.648438 -8.640625 9.429688 -7.632812 10.546875 -6.8125 C 11.660156 -5.988281 13.03125 -5.578125 14.65625 -5.578125 C 17 -5.578125 18.765625 -6.378906 19.953125 -7.984375 C 21.140625 -9.585938 21.734375 -11.523438 21.734375 -13.796875 C 21.734375 -16.035156 21.125 -17.960938 19.90625 -19.578125 C 18.695312 -21.191406 16.945312 -22 14.65625 -22 C 12.382812 -22 10.628906 -21.191406 9.390625 -19.578125 C 8.160156 -17.960938 7.546875 -16.035156 7.546875 -13.796875 Z M 7.546875 -13.796875 "/></g></g></g><g fill="#ffffff" fill-opacity="1"><g transform="translate(472.560048, 512.860114)"><g><path d="M 8.28125 -17.09375 L 8.28125 0 L 2 0 L 2 -27.546875 L 8.28125 -27.546875 L 19.234375 -10.453125 L 19.296875 -10.453125 L 19.296875 -27.546875 L 25.578125 -27.546875 L 25.578125 0 L 19.296875 0 L 8.34375 -17.09375 Z M 8.28125 -17.09375 "/></g></g></g><g fill="#ffffff" fill-opacity="1"><g transform="translate(501.795209, 512.860114)"><g><path d="M 8.28125 -27.546875 L 8.28125 0 L 2 0 L 2 -27.546875 Z M 8.28125 -27.546875 "/></g></g></g><g fill="#ffffff" fill-opacity="1"><g transform="translate(513.743933, 512.860114)"><g><path d="M 0.265625 -22.03125 L 0.265625 -27.546875 L 19.640625 -27.546875 L 19.640625 -22.03125 L 13.09375 -22.03125 L 13.09375 0 L 6.8125 0 L 6.8125 -22.03125 Z M 0.265625 -22.03125 "/></g></g></g><g fill="#ffffff" fill-opacity="1"><g transform="translate(535.303653, 512.860114)"><g><path d="M 0.765625 -13.796875 C 0.765625 -17.773438 2.125 -21.144531 4.84375 -23.90625 C 7.5625 -26.664062 10.832031 -28.046875 14.65625 -28.046875 C 18.507812 -28.046875 21.78125 -26.671875 24.46875 -23.921875 C 27.164062 -21.171875 28.515625 -17.796875 28.515625 -13.796875 C 28.515625 -9.765625 27.1875 -6.375 24.53125 -3.625 C 21.882812 -0.875 18.59375 0.5 14.65625 0.5 C 10.625 0.5 7.300781 -0.863281 4.6875 -3.59375 C 2.070312 -6.320312 0.765625 -9.722656 0.765625 -13.796875 Z M 7.546875 -13.796875 C 7.546875 -12.347656 7.765625 -11.023438 8.203125 -9.828125 C 8.648438 -8.640625 9.429688 -7.632812 10.546875 -6.8125 C 11.660156 -5.988281 13.03125 -5.578125 14.65625 -5.578125 C 17 -5.578125 18.765625 -6.378906 19.953125 -7.984375 C 21.140625 -9.585938 21.734375 -11.523438 21.734375 -13.796875 C 21.734375 -16.035156 21.125 -17.960938 19.90625 -19.578125 C 18.695312 -21.191406 16.945312 -22 14.65625 -22 C 12.382812 -22 10.628906 -21.191406 9.390625 -19.578125 C 8.160156 -17.960938 7.546875 -16.035156 7.546875 -13.796875 Z M 7.546875 -13.796875 "/></g></g></g><g fill="#ffffff" fill-opacity="1"><g transform="translate(566.240744, 512.860114)"><g><path d="M 2 -27.546875 L 11.859375 -27.546875 C 14.503906 -27.546875 16.660156 -26.835938 18.328125 -25.421875 C 19.992188 -24.015625 20.828125 -21.992188 20.828125 -19.359375 C 20.828125 -17.335938 20.320312 -15.640625 19.3125 -14.265625 C 18.300781 -12.898438 16.925781 -11.941406 15.1875 -11.390625 L 24.671875 0 L 16.6875 0 L 8.28125 -10.890625 L 8.28125 0 L 2 0 Z M 8.28125 -15.328125 L 9.015625 -15.328125 C 9.597656 -15.328125 10.085938 -15.335938 10.484375 -15.359375 C 10.878906 -15.378906 11.332031 -15.457031 11.84375 -15.59375 C 12.363281 -15.726562 12.78125 -15.914062 13.09375 -16.15625 C 13.40625 -16.40625 13.671875 -16.765625 13.890625 -17.234375 C 14.109375 -17.703125 14.21875 -18.269531 14.21875 -18.9375 C 14.21875 -19.601562 14.109375 -20.171875 13.890625 -20.640625 C 13.671875 -21.109375 13.40625 -21.460938 13.09375 -21.703125 C 12.78125 -21.953125 12.363281 -22.140625 11.84375 -22.265625 C 11.332031 -22.398438 10.878906 -22.476562 10.484375 -22.5 C 10.085938 -22.519531 9.597656 -22.53125 9.015625 -22.53125 L 8.28125 -22.53125 Z M 8.28125 -15.328125 "/></g></g></g><g fill="#ffffff" fill-opacity="1"><g transform="translate(591.804996, 512.860114)"><g><path d="M 8.28125 -27.546875 L 8.28125 0 L 2 0 L 2 -27.546875 Z M 8.28125 -27.546875 "/></g></g></g><g fill="#ffffff" fill-opacity="1"><g transform="translate(603.753692, 512.860114)"><g><path d="M 8.28125 -17.09375 L 8.28125 0 L 2 0 L 2 -27.546875 L 8.28125 -27.546875 L 19.234375 -10.453125 L 19.296875 -10.453125 L 19.296875 -27.546875 L 25.578125 -27.546875 L 25.578125 0 L 19.296875 0 L 8.34375 -17.09375 Z M 8.28125 -17.09375 "/></g></g></g><g fill="#ffffff" fill-opacity="1"><g transform="translate(632.988825, 512.860114)"><g><path d="M 26.90625 -15.421875 L 26.90625 -9.453125 C 26.195312 -6.179688 24.640625 -3.703125 22.234375 -2.015625 C 19.828125 -0.335938 17.144531 0.5 14.1875 0.5 C 10.46875 0.5 7.300781 -0.890625 4.6875 -3.671875 C 2.070312 -6.453125 0.765625 -9.8125 0.765625 -13.75 C 0.765625 -17.757812 2.046875 -21.144531 4.609375 -23.90625 C 7.171875 -26.664062 10.363281 -28.046875 14.1875 -28.046875 C 18.664062 -28.046875 22.207031 -26.476562 24.8125 -23.34375 L 20.703125 -18.828125 C 19.234375 -21.191406 17.1875 -22.375 14.5625 -22.375 C 12.625 -22.375 10.96875 -21.53125 9.59375 -19.84375 C 8.226562 -18.164062 7.546875 -16.132812 7.546875 -13.75 C 7.546875 -11.414062 8.226562 -9.421875 9.59375 -7.765625 C 10.96875 -6.109375 12.625 -5.28125 14.5625 -5.28125 C 16.164062 -5.28125 17.5625 -5.765625 18.75 -6.734375 C 19.9375 -7.703125 20.53125 -8.984375 20.53125 -10.578125 L 14.1875 -10.578125 L 14.1875 -15.421875 Z M 26.90625 -15.421875 "/></g></g></g><g fill="#ffffff" fill-opacity="1"><g transform="translate(662.32407, 512.860114)"><g/></g></g><g fill="#ffffff" fill-opacity="1"><g transform="translate(673.104794, 512.860114)"><g><path d="M 12.15625 -28.046875 C 13.644531 -28.046875 15.101562 -27.828125 16.53125 -27.390625 C 17.957031 -26.960938 19.015625 -26.535156 19.703125 -26.109375 L 20.703125 -25.4375 L 18.171875 -20.4375 C 17.960938 -20.570312 17.679688 -20.742188 17.328125 -20.953125 C 16.972656 -21.160156 16.304688 -21.441406 15.328125 -21.796875 C 14.347656 -22.160156 13.4375 -22.34375 12.59375 -22.34375 C 11.539062 -22.34375 10.726562 -22.117188 10.15625 -21.671875 C 9.59375 -21.222656 9.3125 -20.625 9.3125 -19.875 C 9.3125 -19.488281 9.445312 -19.132812 9.71875 -18.8125 C 9.988281 -18.488281 10.441406 -18.144531 11.078125 -17.78125 C 11.722656 -17.414062 12.289062 -17.117188 12.78125 -16.890625 C 13.269531 -16.671875 14.03125 -16.335938 15.0625 -15.890625 C 16.84375 -15.140625 18.359375 -14.113281 19.609375 -12.8125 C 20.867188 -11.507812 21.5 -10.03125 21.5 -8.375 C 21.5 -6.800781 21.210938 -5.421875 20.640625 -4.234375 C 20.078125 -3.054688 19.300781 -2.132812 18.3125 -1.46875 C 17.320312 -0.800781 16.222656 -0.304688 15.015625 0.015625 C 13.816406 0.335938 12.519531 0.5 11.125 0.5 C 9.914062 0.5 8.734375 0.375 7.578125 0.125 C 6.421875 -0.113281 5.453125 -0.414062 4.671875 -0.78125 C 3.890625 -1.144531 3.1875 -1.503906 2.5625 -1.859375 C 1.945312 -2.222656 1.492188 -2.523438 1.203125 -2.765625 L 0.765625 -3.140625 L 3.90625 -8.421875 C 4.175781 -8.191406 4.539062 -7.90625 5 -7.5625 C 5.46875 -7.21875 6.296875 -6.753906 7.484375 -6.171875 C 8.679688 -5.597656 9.738281 -5.3125 10.65625 -5.3125 C 13.300781 -5.3125 14.625 -6.210938 14.625 -8.015625 C 14.625 -8.390625 14.53125 -8.738281 14.34375 -9.0625 C 14.15625 -9.382812 13.820312 -9.707031 13.34375 -10.03125 C 12.863281 -10.351562 12.4375 -10.609375 12.0625 -10.796875 C 11.695312 -10.984375 11.097656 -11.269531 10.265625 -11.65625 C 9.429688 -12.050781 8.816406 -12.351562 8.421875 -12.5625 C 6.742188 -13.382812 5.445312 -14.410156 4.53125 -15.640625 C 3.625 -16.878906 3.171875 -18.210938 3.171875 -19.640625 C 3.171875 -22.109375 4.082031 -24.125 5.90625 -25.6875 C 7.726562 -27.257812 9.8125 -28.046875 12.15625 -28.046875 Z M 12.15625 -28.046875 "/></g></g></g><g fill="#ffffff" fill-opacity="1"><g transform="translate(697.200738, 512.860114)"><g><path d="M -1 -27.546875 L 6.546875 -27.546875 L 12.28125 -18.734375 L 18.03125 -27.546875 L 25.578125 -27.546875 L 15.421875 -12.359375 L 15.421875 0 L 9.15625 0 L 9.15625 -12.359375 Z M -1 -27.546875 "/></g></g></g><g fill="#ffffff" fill-opacity="1"><g transform="translate(723.432458, 512.860114)"><g><path d="M 12.15625 -28.046875 C 13.644531 -28.046875 15.101562 -27.828125 16.53125 -27.390625 C 17.957031 -26.960938 19.015625 -26.535156 19.703125 -26.109375 L 20.703125 -25.4375 L 18.171875 -20.4375 C 17.960938 -20.570312 17.679688 -20.742188 17.328125 -20.953125 C 16.972656 -21.160156 16.304688 -21.441406 15.328125 -21.796875 C 14.347656 -22.160156 13.4375 -22.34375 12.59375 -22.34375 C 11.539062 -22.34375 10.726562 -22.117188 10.15625 -21.671875 C 9.59375 -21.222656 9.3125 -20.625 9.3125 -19.875 C 9.3125 -19.488281 9.445312 -19.132812 9.71875 -18.8125 C 9.988281 -18.488281 10.441406 -18.144531 11.078125 -17.78125 C 11.722656 -17.414062 12.289062 -17.117188 12.78125 -16.890625 C 13.269531 -16.671875 14.03125 -16.335938 15.0625 -15.890625 C 16.84375 -15.140625 18.359375 -14.113281 19.609375 -12.8125 C 20.867188 -11.507812 21.5 -10.03125 21.5 -8.375 C 21.5 -6.800781 21.210938 -5.421875 20.640625 -4.234375 C 20.078125 -3.054688 19.300781 -2.132812 18.3125 -1.46875 C 17.320312 -0.800781 16.222656 -0.304688 15.015625 0.015625 C 13.816406 0.335938 12.519531 0.5 11.125 0.5 C 9.914062 0.5 8.734375 0.375 7.578125 0.125 C 6.421875 -0.113281 5.453125 -0.414062 4.671875 -0.78125 C 3.890625 -1.144531 3.1875 -1.503906 2.5625 -1.859375 C 1.945312 -2.222656 1.492188 -2.523438 1.203125 -2.765625 L 0.765625 -3.140625 L 3.90625 -8.421875 C 4.175781 -8.191406 4.539062 -7.90625 5 -7.5625 C 5.46875 -7.21875 6.296875 -6.753906 7.484375 -6.171875 C 8.679688 -5.597656 9.738281 -5.3125 10.65625 -5.3125 C 13.300781 -5.3125 14.625 -6.210938 14.625 -8.015625 C 14.625 -8.390625 14.53125 -8.738281 14.34375 -9.0625 C 14.15625 -9.382812 13.820312 -9.707031 13.34375 -10.03125 C 12.863281 -10.351562 12.4375 -10.609375 12.0625 -10.796875 C 11.695312 -10.984375 11.097656 -11.269531 10.265625 -11.65625 C 9.429688 -12.050781 8.816406 -12.351562 8.421875 -12.5625 C 6.742188 -13.382812 5.445312 -14.410156 4.53125 -15.640625 C 3.625 -16.878906 3.171875 -18.210938 3.171875 -19.640625 C 3.171875 -22.109375 4.082031 -24.125 5.90625 -25.6875 C 7.726562 -27.257812 9.8125 -28.046875 12.15625 -28.046875 Z M 12.15625 -28.046875 "/></g></g></g><g fill="#ffffff" fill-opacity="1"><g transform="translate(747.528401, 512.860114)"><g><path d="M 0.265625 -22.03125 L 0.265625 -27.546875 L 19.640625 -27.546875 L 19.640625 -22.03125 L 13.09375 -22.03125 L 13.09375 0 L 6.8125 0 L 6.8125 -22.03125 Z M 0.265625 -22.03125 "/></g></g></g><g fill="#ffffff" fill-opacity="1"><g transform="translate(769.08812, 512.860114)"><g><path d="M 17.765625 -27.546875 L 17.765625 -22.03125 L 8.28125 -22.03125 L 8.28125 -16.5625 L 17.359375 -16.5625 L 17.359375 -11.046875 L 8.28125 -11.046875 L 8.28125 -5.515625 L 17.765625 -5.515625 L 17.765625 0 L 2 0 L 2 -27.546875 Z M 17.765625 -27.546875 "/></g></g></g><g fill="#ffffff" fill-opacity="1"><g transform="translate(790.113853, 512.860114)"><g><path d="M 24.78125 0 L 23.46875 -16.328125 L 23.3125 -16.328125 L 17.65625 -0.171875 L 13.921875 -0.171875 L 8.28125 -16.328125 L 8.109375 -16.328125 L 6.8125 0 L 0.53125 0 L 3 -27.546875 L 9.6875 -27.546875 L 15.796875 -11.65625 L 21.90625 -27.546875 L 28.578125 -27.546875 L 31.046875 0 Z M 24.78125 0 "/></g></g></g></svg>